# Tiled2Unity generated file. Do not modify by hand.
# Wavefront file for 'Biome_1_Forest_Map_B1_mesh_0007.obj'

# Vertices (Count = 392)
v -32 -16 -0.04545455
v -48 -16 -0.04545455
v -48 0 -0.04545455
v -32 0 -0.04545455
v -384 -16 -0.04545455
v -400 -16 -0.04545455
v -400 0 -0.04545455
v -384 0 -0.04545455
v -400 -16 -0.04545455
v -416 -16 -0.04545455
v -416 0 -0.04545455
v -400 0 -0.04545455
v -416 -16 -0.04545455
v -432 -16 -0.04545455
v -432 0 -0.04545455
v -416 0 -0.04545455
v -480 -16 -0.04545455
v -496 -16 -0.04545455
v -496 0 -0.04545455
v -480 0 -0.04545455
v -496 -16 -0.04545455
v -512 -16 -0.04545455
v -512 0 -0.04545455
v -496 0 -0.04545455
v -512 -16 -0.04545455
v -528 -16 -0.04545455
v -528 0 -0.04545455
v -512 0 -0.04545455
v -608 -16 -0.04545455
v -624 -16 -0.04545455
v -624 0 -0.04545455
v -608 0 -0.04545455
v -624 -16 -0.04545455
v -640 -16 -0.04545455
v -640 0 -0.04545455
v -624 0 -0.04545455
v -144 -32 -0.09090909
v -160 -32 -0.09090909
v -160 -16 -0.09090909
v -144 -16 -0.09090909
v -272 -32 -0.09090909
v -288 -32 -0.09090909
v -288 -16 -0.09090909
v -272 -16 -0.09090909
v -288 -32 -0.09090909
v -304 -32 -0.09090909
v -304 -16 -0.09090909
v -288 -16 -0.09090909
v -432 -32 -0.09090909
v -448 -32 -0.09090909
v -448 -16 -0.09090909
v -432 -16 -0.09090909
v -448 -32 -0.09090909
v -464 -32 -0.09090909
v -464 -16 -0.09090909
v -448 -16 -0.09090909
v -464 -32 -0.09090909
v -480 -32 -0.09090909
v -480 -16 -0.09090909
v -464 -16 -0.09090909
v -32 -272 -0.7727273
v -48 -272 -0.7727273
v -48 -256 -0.7727273
v -32 -256 -0.7727273
v -48 -272 -0.7727273
v -64 -272 -0.7727273
v -64 -256 -0.7727273
v -48 -256 -0.7727273
v -144 -272 -0.7727273
v -160 -272 -0.7727273
v -160 -256 -0.7727273
v -144 -256 -0.7727273
v -160 -272 -0.7727273
v -176 -272 -0.7727273
v -176 -256 -0.7727273
v -160 -256 -0.7727273
v -176 -272 -0.7727273
v -192 -272 -0.7727273
v -192 -256 -0.7727273
v -176 -256 -0.7727273
v -464 -272 -0.7727273
v -480 -272 -0.7727273
v -480 -256 -0.7727273
v -464 -256 -0.7727273
v -16 -288 -0.8181818
v -32 -288 -0.8181818
v -32 -272 -0.8181818
v -16 -272 -0.8181818
v -32 -288 -0.8181818
v -48 -288 -0.8181818
v -48 -272 -0.8181818
v -32 -272 -0.8181818
v -48 -288 -0.8181818
v -64 -288 -0.8181818
v -64 -272 -0.8181818
v -48 -272 -0.8181818
v -64 -288 -0.8181818
v -80 -288 -0.8181818
v -80 -272 -0.8181818
v -64 -272 -0.8181818
v -128 -288 -0.8181818
v -144 -288 -0.8181818
v -144 -272 -0.8181818
v -128 -272 -0.8181818
v -144 -288 -0.8181818
v -160 -288 -0.8181818
v -160 -272 -0.8181818
v -144 -272 -0.8181818
v -160 -288 -0.8181818
v -176 -288 -0.8181818
v -176 -272 -0.8181818
v -160 -272 -0.8181818
v -176 -288 -0.8181818
v -192 -288 -0.8181818
v -192 -272 -0.8181818
v -176 -272 -0.8181818
v -224 -288 -0.8181818
v -240 -288 -0.8181818
v -240 -272 -0.8181818
v -224 -272 -0.8181818
v -240 -288 -0.8181818
v -256 -288 -0.8181818
v -256 -272 -0.8181818
v -240 -272 -0.8181818
v -256 -288 -0.8181818
v -272 -288 -0.8181818
v -272 -272 -0.8181818
v -256 -272 -0.8181818
v -336 -288 -0.8181818
v -352 -288 -0.8181818
v -352 -272 -0.8181818
v -336 -272 -0.8181818
v -448 -288 -0.8181818
v -464 -288 -0.8181818
v -464 -272 -0.8181818
v -448 -272 -0.8181818
v -464 -288 -0.8181818
v -480 -288 -0.8181818
v -480 -272 -0.8181818
v -464 -272 -0.8181818
v -480 -288 -0.8181818
v -496 -288 -0.8181818
v -496 -272 -0.8181818
v -480 -272 -0.8181818
v 0 -304 -0.8636364
v -16 -304 -0.8636364
v -16 -288 -0.8636364
v 0 -288 -0.8636364
v -16 -304 -0.8636364
v -32 -304 -0.8636364
v -32 -288 -0.8636364
v -16 -288 -0.8636364
v -32 -304 -0.8636364
v -48 -304 -0.8636364
v -48 -288 -0.8636364
v -32 -288 -0.8636364
v -48 -304 -0.8636364
v -64 -304 -0.8636364
v -64 -288 -0.8636364
v -48 -288 -0.8636364
v -64 -304 -0.8636364
v -80 -304 -0.8636364
v -80 -288 -0.8636364
v -64 -288 -0.8636364
v -80 -304 -0.8636364
v -96 -304 -0.8636364
v -96 -288 -0.8636364
v -80 -288 -0.8636364
v -96 -304 -0.8636364
v -112 -304 -0.8636364
v -112 -288 -0.8636364
v -96 -288 -0.8636364
v -112 -304 -0.8636364
v -128 -304 -0.8636364
v -128 -288 -0.8636364
v -112 -288 -0.8636364
v -128 -304 -0.8636364
v -144 -304 -0.8636364
v -144 -288 -0.8636364
v -128 -288 -0.8636364
v -144 -304 -0.8636364
v -160 -304 -0.8636364
v -160 -288 -0.8636364
v -144 -288 -0.8636364
v -160 -304 -0.8636364
v -176 -304 -0.8636364
v -176 -288 -0.8636364
v -160 -288 -0.8636364
v -176 -304 -0.8636364
v -192 -304 -0.8636364
v -192 -288 -0.8636364
v -176 -288 -0.8636364
v -192 -304 -0.8636364
v -208 -304 -0.8636364
v -208 -288 -0.8636364
v -192 -288 -0.8636364
v -208 -304 -0.8636364
v -224 -304 -0.8636364
v -224 -288 -0.8636364
v -208 -288 -0.8636364
v -224 -304 -0.8636364
v -240 -304 -0.8636364
v -240 -288 -0.8636364
v -224 -288 -0.8636364
v -240 -304 -0.8636364
v -256 -304 -0.8636364
v -256 -288 -0.8636364
v -240 -288 -0.8636364
v -256 -304 -0.8636364
v -272 -304 -0.8636364
v -272 -288 -0.8636364
v -256 -288 -0.8636364
v -272 -304 -0.8636364
v -288 -304 -0.8636364
v -288 -288 -0.8636364
v -272 -288 -0.8636364
v -288 -304 -0.8636364
v -304 -304 -0.8636364
v -304 -288 -0.8636364
v -288 -288 -0.8636364
v -304 -304 -0.8636364
v -320 -304 -0.8636364
v -320 -288 -0.8636364
v -304 -288 -0.8636364
v -320 -304 -0.8636364
v -336 -304 -0.8636364
v -336 -288 -0.8636364
v -320 -288 -0.8636364
v -336 -304 -0.8636364
v -352 -304 -0.8636364
v -352 -288 -0.8636364
v -336 -288 -0.8636364
v -352 -304 -0.8636364
v -368 -304 -0.8636364
v -368 -288 -0.8636364
v -352 -288 -0.8636364
v -368 -304 -0.8636364
v -384 -304 -0.8636364
v -384 -288 -0.8636364
v -368 -288 -0.8636364
v -384 -304 -0.8636364
v -400 -304 -0.8636364
v -400 -288 -0.8636364
v -384 -288 -0.8636364
v -400 -304 -0.8636364
v -416 -304 -0.8636364
v -416 -288 -0.8636364
v -400 -288 -0.8636364
v -416 -304 -0.8636364
v -432 -304 -0.8636364
v -432 -288 -0.8636364
v -416 -288 -0.8636364
v -432 -304 -0.8636364
v -448 -304 -0.8636364
v -448 -288 -0.8636364
v -432 -288 -0.8636364
v -448 -304 -0.8636364
v -464 -304 -0.8636364
v -464 -288 -0.8636364
v -448 -288 -0.8636364
v -464 -304 -0.8636364
v -480 -304 -0.8636364
v -480 -288 -0.8636364
v -464 -288 -0.8636364
v -480 -304 -0.8636364
v -496 -304 -0.8636364
v -496 -288 -0.8636364
v -480 -288 -0.8636364
v -496 -304 -0.8636364
v -512 -304 -0.8636364
v -512 -288 -0.8636364
v -496 -288 -0.8636364
v -512 -304 -0.8636364
v -528 -304 -0.8636364
v -528 -288 -0.8636364
v -512 -288 -0.8636364
v -528 -304 -0.8636364
v -544 -304 -0.8636364
v -544 -288 -0.8636364
v -528 -288 -0.8636364
v -544 -304 -0.8636364
v -560 -304 -0.8636364
v -560 -288 -0.8636364
v -544 -288 -0.8636364
v -560 -304 -0.8636364
v -576 -304 -0.8636364
v -576 -288 -0.8636364
v -560 -288 -0.8636364
v -576 -304 -0.8636364
v -592 -304 -0.8636364
v -592 -288 -0.8636364
v -576 -288 -0.8636364
v -592 -304 -0.8636364
v -608 -304 -0.8636364
v -608 -288 -0.8636364
v -592 -288 -0.8636364
v -608 -304 -0.8636364
v -624 -304 -0.8636364
v -624 -288 -0.8636364
v -608 -288 -0.8636364
v -624 -304 -0.8636364
v -640 -304 -0.8636364
v -640 -288 -0.8636364
v -624 -288 -0.8636364
v -16 -320 -0.9090909
v -32 -320 -0.9090909
v -32 -304 -0.9090909
v -16 -304 -0.9090909
v -32 -320 -0.9090909
v -48 -320 -0.9090909
v -48 -304 -0.9090909
v -32 -304 -0.9090909
v -48 -320 -0.9090909
v -64 -320 -0.9090909
v -64 -304 -0.9090909
v -48 -304 -0.9090909
v -64 -320 -0.9090909
v -80 -320 -0.9090909
v -80 -304 -0.9090909
v -64 -304 -0.9090909
v -176 -320 -0.9090909
v -192 -320 -0.9090909
v -192 -304 -0.9090909
v -176 -304 -0.9090909
v -272 -320 -0.9090909
v -288 -320 -0.9090909
v -288 -304 -0.9090909
v -272 -304 -0.9090909
v -352 -320 -0.9090909
v -368 -320 -0.9090909
v -368 -304 -0.9090909
v -352 -304 -0.9090909
v -368 -320 -0.9090909
v -384 -320 -0.9090909
v -384 -304 -0.9090909
v -368 -304 -0.9090909
v -384 -320 -0.9090909
v -400 -320 -0.9090909
v -400 -304 -0.9090909
v -384 -304 -0.9090909
v -400 -320 -0.9090909
v -416 -320 -0.9090909
v -416 -304 -0.9090909
v -400 -304 -0.9090909
v -464 -320 -0.9090909
v -480 -320 -0.9090909
v -480 -304 -0.9090909
v -464 -304 -0.9090909
v -480 -320 -0.9090909
v -496 -320 -0.9090909
v -496 -304 -0.9090909
v -480 -304 -0.9090909
v -496 -320 -0.9090909
v -512 -320 -0.9090909
v -512 -304 -0.9090909
v -496 -304 -0.9090909
v -592 -320 -0.9090909
v -608 -320 -0.9090909
v -608 -304 -0.9090909
v -592 -304 -0.9090909
v -608 -320 -0.9090909
v -624 -320 -0.9090909
v -624 -304 -0.9090909
v -608 -304 -0.9090909
v -128 -336 -0.9545454
v -144 -336 -0.9545454
v -144 -320 -0.9545454
v -128 -320 -0.9545454
v -256 -336 -0.9545454
v -272 -336 -0.9545454
v -272 -320 -0.9545454
v -256 -320 -0.9545454
v -272 -336 -0.9545454
v -288 -336 -0.9545454
v -288 -320 -0.9545454
v -272 -320 -0.9545454
v -288 -336 -0.9545454
v -304 -336 -0.9545454
v -304 -320 -0.9545454
v -288 -320 -0.9545454
v -416 -336 -0.9545454
v -432 -336 -0.9545454
v -432 -320 -0.9545454
v -416 -320 -0.9545454
v -432 -336 -0.9545454
v -448 -336 -0.9545454
v -448 -320 -0.9545454
v -432 -320 -0.9545454
v -448 -336 -0.9545454
v -464 -336 -0.9545454
v -464 -320 -0.9545454
v -448 -320 -0.9545454

# Texture cooridinates (Count = 16)
vt 0.1875 0.59375
vt 0.21875 0.59375
vt 0.21875 0.625
vt 0.1875 0.625
vt 0.15625 0.59375
vt 0.15625 0.625
vt 0.25 0.59375
vt 0.25 0.625
vt 0.15625 0.65625
vt 0.1875 0.65625
vt 0.1875 0.6875
vt 0.15625 0.6875
vt 0.21875 0.65625
vt 0.25 0.65625
vt 0.25 0.6875
vt 0.21875 0.6875

# Normal
vn 0 0 -1

# Mesh description
g Biome_1_Forest_Map_B1_mesh_0007

# Faces
f 1/1/1 2/2/1 3/3/1 4/4/1
f 5/5/1 6/1/1 7/4/1 8/6/1
f 9/1/1 10/2/1 11/3/1 12/4/1
f 13/2/1 14/7/1 15/8/1 16/3/1
f 17/5/1 18/1/1 19/4/1 20/6/1
f 21/1/1 22/2/1 23/3/1 24/4/1
f 25/2/1 26/7/1 27/8/1 28/3/1
f 29/5/1 30/1/1 31/4/1 32/6/1
f 33/2/1 34/7/1 35/8/1 36/3/1
f 37/1/1 38/2/1 39/3/1 40/4/1
f 41/5/1 42/1/1 43/4/1 44/6/1
f 45/1/1 46/2/1 47/3/1 48/4/1
f 49/5/1 50/1/1 51/4/1 52/6/1
f 53/1/1 54/2/1 55/3/1 56/4/1
f 57/2/1 58/7/1 59/8/1 60/3/1
f 61/9/1 62/10/1 63/11/1 64/12/1
f 65/13/1 66/14/1 67/15/1 68/16/1
f 69/9/1 70/10/1 71/11/1 72/12/1
f 73/10/1 74/13/1 75/16/1 76/11/1
f 77/13/1 78/14/1 79/15/1 80/16/1
f 81/9/1 82/10/1 83/11/1 84/12/1
f 85/10/1 86/13/1 87/16/1 88/11/1
f 89/5/1 90/1/1 91/4/1 92/6/1
f 93/1/1 94/2/1 95/3/1 96/4/1
f 97/10/1 98/13/1 99/16/1 100/11/1
f 101/10/1 102/13/1 103/16/1 104/11/1
f 105/5/1 106/1/1 107/4/1 108/6/1
f 109/1/1 110/2/1 111/3/1 112/4/1
f 113/3/1 114/8/1 115/14/1 116/13/1
f 117/9/1 118/10/1 119/11/1 120/12/1
f 121/10/1 122/13/1 123/16/1 124/11/1
f 125/13/1 126/14/1 127/15/1 128/16/1
f 129/10/1 130/13/1 131/16/1 132/11/1
f 133/9/1 134/10/1 135/11/1 136/12/1
f 137/4/1 138/3/1 139/13/1 140/10/1
f 141/13/1 142/14/1 143/15/1 144/16/1
f 145/9/1 146/10/1 147/11/1 148/12/1
f 149/4/1 150/3/1 151/13/1 152/10/1
f 153/4/1 154/3/1 155/13/1 156/10/1
f 157/4/1 158/3/1 159/13/1 160/10/1
f 161/4/1 162/3/1 163/13/1 164/10/1
f 165/10/1 166/13/1 167/16/1 168/11/1
f 169/10/1 170/13/1 171/16/1 172/11/1
f 173/10/1 174/13/1 175/16/1 176/11/1
f 177/4/1 178/3/1 179/13/1 180/10/1
f 181/6/1 182/4/1 183/10/1 184/9/1
f 185/4/1 186/3/1 187/13/1 188/10/1
f 189/3/1 190/8/1 191/14/1 192/13/1
f 193/10/1 194/13/1 195/16/1 196/11/1
f 197/10/1 198/13/1 199/16/1 200/11/1
f 201/5/1 202/1/1 203/4/1 204/6/1
f 205/1/1 206/2/1 207/3/1 208/4/1
f 209/2/1 210/7/1 211/8/1 212/3/1
f 213/10/1 214/13/1 215/16/1 216/11/1
f 217/10/1 218/13/1 219/16/1 220/11/1
f 221/10/1 222/13/1 223/16/1 224/11/1
f 225/10/1 226/13/1 227/16/1 228/11/1
f 229/4/1 230/3/1 231/13/1 232/10/1
f 233/10/1 234/13/1 235/16/1 236/11/1
f 237/10/1 238/13/1 239/16/1 240/11/1
f 241/10/1 242/13/1 243/16/1 244/11/1
f 245/10/1 246/13/1 247/16/1 248/11/1
f 249/10/1 250/13/1 251/16/1 252/11/1
f 253/10/1 254/13/1 255/16/1 256/11/1
f 257/6/1 258/4/1 259/10/1 260/9/1
f 261/4/1 262/3/1 263/13/1 264/10/1
f 265/3/1 266/8/1 267/14/1 268/13/1
f 269/10/1 270/13/1 271/16/1 272/11/1
f 273/10/1 274/13/1 275/16/1 276/11/1
f 277/10/1 278/13/1 279/16/1 280/11/1
f 281/10/1 282/13/1 283/16/1 284/11/1
f 285/5/1 286/1/1 287/4/1 288/6/1
f 289/1/1 290/2/1 291/3/1 292/4/1
f 293/10/1 294/13/1 295/16/1 296/11/1
f 297/10/1 298/13/1 299/16/1 300/11/1
f 301/13/1 302/14/1 303/15/1 304/16/1
f 305/1/1 306/2/1 307/3/1 308/4/1
f 309/5/1 310/1/1 311/4/1 312/6/1
f 313/1/1 314/2/1 315/3/1 316/4/1
f 317/2/1 318/7/1 319/8/1 320/3/1
f 321/4/1 322/3/1 323/13/1 324/10/1
f 325/4/1 326/3/1 327/13/1 328/10/1
f 329/4/1 330/3/1 331/13/1 332/10/1
f 333/5/1 334/1/1 335/4/1 336/6/1
f 337/1/1 338/2/1 339/3/1 340/4/1
f 341/2/1 342/7/1 343/8/1 344/3/1
f 345/5/1 346/1/1 347/4/1 348/6/1
f 349/1/1 350/2/1 351/3/1 352/4/1
f 353/2/1 354/7/1 355/8/1 356/3/1
f 357/5/1 358/1/1 359/4/1 360/6/1
f 361/2/1 362/7/1 363/8/1 364/3/1
f 365/1/1 366/2/1 367/3/1 368/4/1
f 369/5/1 370/1/1 371/4/1 372/6/1
f 373/1/1 374/2/1 375/3/1 376/4/1
f 377/2/1 378/7/1 379/8/1 380/3/1
f 381/5/1 382/1/1 383/4/1 384/6/1
f 385/1/1 386/2/1 387/3/1 388/4/1
f 389/2/1 390/7/1 391/8/1 392/3/1

