# Tiled2Unity generated file. Do not modify by hand.
# Wavefront file for 'Biome_1_Forest_Map_B2_mesh_0007.obj'

# Vertices (Count = 140)
v -32 -16 -0.04545455
v -48 -16 -0.04545455
v -48 0 -0.04545455
v -32 0 -0.04545455
v -384 -16 -0.04545455
v -400 -16 -0.04545455
v -400 0 -0.04545455
v -384 0 -0.04545455
v -400 -16 -0.04545455
v -416 -16 -0.04545455
v -416 0 -0.04545455
v -400 0 -0.04545455
v -416 -16 -0.04545455
v -432 -16 -0.04545455
v -432 0 -0.04545455
v -416 0 -0.04545455
v -480 -16 -0.04545455
v -496 -16 -0.04545455
v -496 0 -0.04545455
v -480 0 -0.04545455
v -496 -16 -0.04545455
v -512 -16 -0.04545455
v -512 0 -0.04545455
v -496 0 -0.04545455
v -512 -16 -0.04545455
v -528 -16 -0.04545455
v -528 0 -0.04545455
v -512 0 -0.04545455
v -608 -16 -0.04545455
v -624 -16 -0.04545455
v -624 0 -0.04545455
v -608 0 -0.04545455
v -624 -16 -0.04545455
v -640 -16 -0.04545455
v -640 0 -0.04545455
v -624 0 -0.04545455
v -144 -32 -0.09090909
v -160 -32 -0.09090909
v -160 -16 -0.09090909
v -144 -16 -0.09090909
v -272 -32 -0.09090909
v -288 -32 -0.09090909
v -288 -16 -0.09090909
v -272 -16 -0.09090909
v -288 -32 -0.09090909
v -304 -32 -0.09090909
v -304 -16 -0.09090909
v -288 -16 -0.09090909
v -304 -32 -0.09090909
v -320 -32 -0.09090909
v -320 -16 -0.09090909
v -304 -16 -0.09090909
v -432 -32 -0.09090909
v -448 -32 -0.09090909
v -448 -16 -0.09090909
v -432 -16 -0.09090909
v -448 -32 -0.09090909
v -464 -32 -0.09090909
v -464 -16 -0.09090909
v -448 -16 -0.09090909
v -464 -32 -0.09090909
v -480 -32 -0.09090909
v -480 -16 -0.09090909
v -464 -16 -0.09090909
v 0 -48 -0.1363636
v -16 -48 -0.1363636
v -16 -32 -0.1363636
v 0 -32 -0.1363636
v -624 -64 -0.1818182
v -640 -64 -0.1818182
v -640 -48 -0.1818182
v -624 -48 -0.1818182
v 0 -80 -0.2272727
v -16 -80 -0.2272727
v -16 -64 -0.2272727
v 0 -64 -0.2272727
v 0 -160 -0.4545455
v -16 -160 -0.4545455
v -16 -144 -0.4545455
v 0 -144 -0.4545455
v -32 -272 -0.7727273
v -48 -272 -0.7727273
v -48 -256 -0.7727273
v -32 -256 -0.7727273
v -48 -272 -0.7727273
v -64 -272 -0.7727273
v -64 -256 -0.7727273
v -48 -256 -0.7727273
v -32 -304 -0.8636364
v -48 -304 -0.8636364
v -48 -288 -0.8636364
v -32 -288 -0.8636364
v -48 -304 -0.8636364
v -64 -304 -0.8636364
v -64 -288 -0.8636364
v -48 -288 -0.8636364
v -112 -304 -0.8636364
v -128 -304 -0.8636364
v -128 -288 -0.8636364
v -112 -288 -0.8636364
v -128 -304 -0.8636364
v -144 -304 -0.8636364
v -144 -288 -0.8636364
v -128 -288 -0.8636364
v -208 -304 -0.8636364
v -224 -304 -0.8636364
v -224 -288 -0.8636364
v -208 -288 -0.8636364
v -416 -304 -0.8636364
v -432 -304 -0.8636364
v -432 -288 -0.8636364
v -416 -288 -0.8636364
v -224 -320 -0.9090909
v -240 -320 -0.9090909
v -240 -304 -0.9090909
v -224 -304 -0.9090909
v -480 -320 -0.9090909
v -496 -320 -0.9090909
v -496 -304 -0.9090909
v -480 -304 -0.9090909
v -496 -320 -0.9090909
v -512 -320 -0.9090909
v -512 -304 -0.9090909
v -496 -304 -0.9090909
v -512 -320 -0.9090909
v -528 -320 -0.9090909
v -528 -304 -0.9090909
v -512 -304 -0.9090909
v 0 -336 -0.9545454
v -16 -336 -0.9545454
v -16 -320 -0.9545454
v 0 -320 -0.9545454
v -368 -336 -0.9545454
v -384 -336 -0.9545454
v -384 -320 -0.9545454
v -368 -320 -0.9545454
v -608 -336 -0.9545454
v -624 -336 -0.9545454
v -624 -320 -0.9545454
v -608 -320 -0.9545454

# Texture cooridinates (Count = 16)
vt 0.1875 0.59375
vt 0.21875 0.59375
vt 0.21875 0.625
vt 0.1875 0.625
vt 0.15625 0.59375
vt 0.15625 0.625
vt 0.25 0.59375
vt 0.25 0.625
vt 0.15625 0.65625
vt 0.1875 0.65625
vt 0.1875 0.6875
vt 0.15625 0.6875
vt 0.21875 0.65625
vt 0.25 0.65625
vt 0.25 0.6875
vt 0.21875 0.6875

# Normal
vn 0 0 -1

# Mesh description
g Biome_1_Forest_Map_B2_mesh_0007

# Faces
f 1/1/1 2/2/1 3/3/1 4/4/1
f 5/5/1 6/1/1 7/4/1 8/6/1
f 9/1/1 10/2/1 11/3/1 12/4/1
f 13/2/1 14/7/1 15/8/1 16/3/1
f 17/5/1 18/1/1 19/4/1 20/6/1
f 21/1/1 22/2/1 23/3/1 24/4/1
f 25/2/1 26/7/1 27/8/1 28/3/1
f 29/5/1 30/1/1 31/4/1 32/6/1
f 33/2/1 34/7/1 35/8/1 36/3/1
f 37/1/1 38/2/1 39/3/1 40/4/1
f 41/5/1 42/1/1 43/4/1 44/6/1
f 45/1/1 46/2/1 47/3/1 48/4/1
f 49/2/1 50/7/1 51/8/1 52/3/1
f 53/5/1 54/1/1 55/4/1 56/6/1
f 57/1/1 58/2/1 59/3/1 60/4/1
f 61/2/1 62/7/1 63/8/1 64/3/1
f 65/2/1 66/7/1 67/8/1 68/3/1
f 69/1/1 70/2/1 71/3/1 72/4/1
f 73/2/1 74/7/1 75/8/1 76/3/1
f 77/2/1 78/7/1 79/8/1 80/3/1
f 81/9/1 82/10/1 83/11/1 84/12/1
f 85/13/1 86/14/1 87/15/1 88/16/1
f 89/4/1 90/3/1 91/13/1 92/10/1
f 93/4/1 94/3/1 95/13/1 96/10/1
f 97/1/1 98/2/1 99/3/1 100/4/1
f 101/2/1 102/7/1 103/8/1 104/3/1
f 105/1/1 106/2/1 107/3/1 108/4/1
f 109/1/1 110/2/1 111/3/1 112/4/1
f 113/1/1 114/2/1 115/3/1 116/4/1
f 117/5/1 118/1/1 119/4/1 120/6/1
f 121/1/1 122/2/1 123/3/1 124/4/1
f 125/2/1 126/7/1 127/8/1 128/3/1
f 129/1/1 130/2/1 131/3/1 132/4/1
f 133/1/1 134/2/1 135/3/1 136/4/1
f 137/1/1 138/2/1 139/3/1 140/4/1

