# Tiled2Unity generated file. Do not modify by hand.
# Wavefront file for 'Biome_1_Dungeon_Map_C1_mesh_0004.obj'

# Vertices (Count = 96)
v -144 -256 -0.7272727
v -160 -256 -0.7272727
v -160 -240 -0.7272727
v -144 -240 -0.7272727
v -160 -256 -0.7272727
v -176 -256 -0.7272727
v -176 -240 -0.7272727
v -160 -240 -0.7272727
v -272 -256 -0.7272727
v -288 -256 -0.7272727
v -288 -240 -0.7272727
v -272 -240 -0.7272727
v -288 -256 -0.7272727
v -304 -256 -0.7272727
v -304 -240 -0.7272727
v -288 -240 -0.7272727
v -400 -256 -0.7272727
v -416 -256 -0.7272727
v -416 -240 -0.7272727
v -400 -240 -0.7272727
v -416 -256 -0.7272727
v -432 -256 -0.7272727
v -432 -240 -0.7272727
v -416 -240 -0.7272727
v -144 -272 -0.7727273
v -160 -272 -0.7727273
v -160 -256 -0.7727273
v -144 -256 -0.7727273
v -160 -272 -0.7727273
v -176 -272 -0.7727273
v -176 -256 -0.7727273
v -160 -256 -0.7727273
v -272 -272 -0.7727273
v -288 -272 -0.7727273
v -288 -256 -0.7727273
v -272 -256 -0.7727273
v -288 -272 -0.7727273
v -304 -272 -0.7727273
v -304 -256 -0.7727273
v -288 -256 -0.7727273
v -400 -272 -0.7727273
v -416 -272 -0.7727273
v -416 -256 -0.7727273
v -400 -256 -0.7727273
v -416 -272 -0.7727273
v -432 -272 -0.7727273
v -432 -256 -0.7727273
v -416 -256 -0.7727273
v -208 -288 -0.8181818
v -224 -288 -0.8181818
v -224 -272 -0.8181818
v -208 -272 -0.8181818
v -224 -288 -0.8181818
v -240 -288 -0.8181818
v -240 -272 -0.8181818
v -224 -272 -0.8181818
v -336 -288 -0.8181818
v -352 -288 -0.8181818
v -352 -272 -0.8181818
v -336 -272 -0.8181818
v -352 -288 -0.8181818
v -368 -288 -0.8181818
v -368 -272 -0.8181818
v -352 -272 -0.8181818
v -464 -288 -0.8181818
v -480 -288 -0.8181818
v -480 -272 -0.8181818
v -464 -272 -0.8181818
v -480 -288 -0.8181818
v -496 -288 -0.8181818
v -496 -272 -0.8181818
v -480 -272 -0.8181818
v -208 -304 -0.8636364
v -224 -304 -0.8636364
v -224 -288 -0.8636364
v -208 -288 -0.8636364
v -224 -304 -0.8636364
v -240 -304 -0.8636364
v -240 -288 -0.8636364
v -224 -288 -0.8636364
v -336 -304 -0.8636364
v -352 -304 -0.8636364
v -352 -288 -0.8636364
v -336 -288 -0.8636364
v -352 -304 -0.8636364
v -368 -304 -0.8636364
v -368 -288 -0.8636364
v -352 -288 -0.8636364
v -464 -304 -0.8636364
v -480 -304 -0.8636364
v -480 -288 -0.8636364
v -464 -288 -0.8636364
v -480 -304 -0.8636364
v -496 -304 -0.8636364
v -496 -288 -0.8636364
v -480 -288 -0.8636364

# Texture cooridinates (Count = 4)
vt 0.0625 0.71875
vt 0.09375 0.71875
vt 0.09375 0.75
vt 0.0625 0.75

# Normal
vn 0 0 -1

# Mesh description
g Biome_1_Dungeon_Map_C1_mesh_0004

# Faces
f 1/1/1 2/2/1 3/3/1 4/4/1
f 5/1/1 6/2/1 7/3/1 8/4/1
f 9/1/1 10/2/1 11/3/1 12/4/1
f 13/1/1 14/2/1 15/3/1 16/4/1
f 17/1/1 18/2/1 19/3/1 20/4/1
f 21/1/1 22/2/1 23/3/1 24/4/1
f 25/1/1 26/2/1 27/3/1 28/4/1
f 29/1/1 30/2/1 31/3/1 32/4/1
f 33/1/1 34/2/1 35/3/1 36/4/1
f 37/1/1 38/2/1 39/3/1 40/4/1
f 41/1/1 42/2/1 43/3/1 44/4/1
f 45/1/1 46/2/1 47/3/1 48/4/1
f 49/1/1 50/2/1 51/3/1 52/4/1
f 53/1/1 54/2/1 55/3/1 56/4/1
f 57/1/1 58/2/1 59/3/1 60/4/1
f 61/1/1 62/2/1 63/3/1 64/4/1
f 65/1/1 66/2/1 67/3/1 68/4/1
f 69/1/1 70/2/1 71/3/1 72/4/1
f 73/1/1 74/2/1 75/3/1 76/4/1
f 77/1/1 78/2/1 79/3/1 80/4/1
f 81/1/1 82/2/1 83/3/1 84/4/1
f 85/1/1 86/2/1 87/3/1 88/4/1
f 89/1/1 90/2/1 91/3/1 92/4/1
f 93/1/1 94/2/1 95/3/1 96/4/1

