# Tiled2Unity generated file. Do not modify by hand.
# Wavefront file for 'Biome_1_Dungeon_Map_C1_mesh_0002.obj'

# Vertices (Count = 784)
v -112 -128 -0.3636364
v -128 -128 -0.3636364
v -128 -112 -0.3636364
v -112 -112 -0.3636364
v -128 -128 -0.3636364
v -144 -128 -0.3636364
v -144 -112 -0.3636364
v -128 -112 -0.3636364
v -144 -128 -0.3636364
v -160 -128 -0.3636364
v -160 -112 -0.3636364
v -144 -112 -0.3636364
v -160 -128 -0.3636364
v -176 -128 -0.3636364
v -176 -112 -0.3636364
v -160 -112 -0.3636364
v -176 -128 -0.3636364
v -192 -128 -0.3636364
v -192 -112 -0.3636364
v -176 -112 -0.3636364
v -192 -128 -0.3636364
v -208 -128 -0.3636364
v -208 -112 -0.3636364
v -192 -112 -0.3636364
v -208 -128 -0.3636364
v -224 -128 -0.3636364
v -224 -112 -0.3636364
v -208 -112 -0.3636364
v -224 -128 -0.3636364
v -240 -128 -0.3636364
v -240 -112 -0.3636364
v -224 -112 -0.3636364
v -240 -128 -0.3636364
v -256 -128 -0.3636364
v -256 -112 -0.3636364
v -240 -112 -0.3636364
v -256 -128 -0.3636364
v -272 -128 -0.3636364
v -272 -112 -0.3636364
v -256 -112 -0.3636364
v -272 -128 -0.3636364
v -288 -128 -0.3636364
v -288 -112 -0.3636364
v -272 -112 -0.3636364
v -352 -128 -0.3636364
v -368 -128 -0.3636364
v -368 -112 -0.3636364
v -352 -112 -0.3636364
v -368 -128 -0.3636364
v -384 -128 -0.3636364
v -384 -112 -0.3636364
v -368 -112 -0.3636364
v -384 -128 -0.3636364
v -400 -128 -0.3636364
v -400 -112 -0.3636364
v -384 -112 -0.3636364
v -400 -128 -0.3636364
v -416 -128 -0.3636364
v -416 -112 -0.3636364
v -400 -112 -0.3636364
v -416 -128 -0.3636364
v -432 -128 -0.3636364
v -432 -112 -0.3636364
v -416 -112 -0.3636364
v -432 -128 -0.3636364
v -448 -128 -0.3636364
v -448 -112 -0.3636364
v -432 -112 -0.3636364
v -448 -128 -0.3636364
v -464 -128 -0.3636364
v -464 -112 -0.3636364
v -448 -112 -0.3636364
v -464 -128 -0.3636364
v -480 -128 -0.3636364
v -480 -112 -0.3636364
v -464 -112 -0.3636364
v -480 -128 -0.3636364
v -496 -128 -0.3636364
v -496 -112 -0.3636364
v -480 -112 -0.3636364
v -496 -128 -0.3636364
v -512 -128 -0.3636364
v -512 -112 -0.3636364
v -496 -112 -0.3636364
v -512 -128 -0.3636364
v -528 -128 -0.3636364
v -528 -112 -0.3636364
v -512 -112 -0.3636364
v -112 -144 -0.4090909
v -128 -144 -0.4090909
v -128 -128 -0.4090909
v -112 -128 -0.4090909
v -128 -144 -0.4090909
v -144 -144 -0.4090909
v -144 -128 -0.4090909
v -128 -128 -0.4090909
v -144 -144 -0.4090909
v -160 -144 -0.4090909
v -160 -128 -0.4090909
v -144 -128 -0.4090909
v -160 -144 -0.4090909
v -176 -144 -0.4090909
v -176 -128 -0.4090909
v -160 -128 -0.4090909
v -176 -144 -0.4090909
v -192 -144 -0.4090909
v -192 -128 -0.4090909
v -176 -128 -0.4090909
v -192 -144 -0.4090909
v -208 -144 -0.4090909
v -208 -128 -0.4090909
v -192 -128 -0.4090909
v -208 -144 -0.4090909
v -224 -144 -0.4090909
v -224 -128 -0.4090909
v -208 -128 -0.4090909
v -224 -144 -0.4090909
v -240 -144 -0.4090909
v -240 -128 -0.4090909
v -224 -128 -0.4090909
v -240 -144 -0.4090909
v -256 -144 -0.4090909
v -256 -128 -0.4090909
v -240 -128 -0.4090909
v -256 -144 -0.4090909
v -272 -144 -0.4090909
v -272 -128 -0.4090909
v -256 -128 -0.4090909
v -272 -144 -0.4090909
v -288 -144 -0.4090909
v -288 -128 -0.4090909
v -272 -128 -0.4090909
v -352 -144 -0.4090909
v -368 -144 -0.4090909
v -368 -128 -0.4090909
v -352 -128 -0.4090909
v -368 -144 -0.4090909
v -384 -144 -0.4090909
v -384 -128 -0.4090909
v -368 -128 -0.4090909
v -384 -144 -0.4090909
v -400 -144 -0.4090909
v -400 -128 -0.4090909
v -384 -128 -0.4090909
v -400 -144 -0.4090909
v -416 -144 -0.4090909
v -416 -128 -0.4090909
v -400 -128 -0.4090909
v -416 -144 -0.4090909
v -432 -144 -0.4090909
v -432 -128 -0.4090909
v -416 -128 -0.4090909
v -432 -144 -0.4090909
v -448 -144 -0.4090909
v -448 -128 -0.4090909
v -432 -128 -0.4090909
v -448 -144 -0.4090909
v -464 -144 -0.4090909
v -464 -128 -0.4090909
v -448 -128 -0.4090909
v -464 -144 -0.4090909
v -480 -144 -0.4090909
v -480 -128 -0.4090909
v -464 -128 -0.4090909
v -480 -144 -0.4090909
v -496 -144 -0.4090909
v -496 -128 -0.4090909
v -480 -128 -0.4090909
v -496 -144 -0.4090909
v -512 -144 -0.4090909
v -512 -128 -0.4090909
v -496 -128 -0.4090909
v -512 -144 -0.4090909
v -528 -144 -0.4090909
v -528 -128 -0.4090909
v -512 -128 -0.4090909
v -112 -160 -0.4545455
v -128 -160 -0.4545455
v -128 -144 -0.4545455
v -112 -144 -0.4545455
v -128 -160 -0.4545455
v -144 -160 -0.4545455
v -144 -144 -0.4545455
v -128 -144 -0.4545455
v -144 -160 -0.4545455
v -160 -160 -0.4545455
v -160 -144 -0.4545455
v -144 -144 -0.4545455
v -160 -160 -0.4545455
v -176 -160 -0.4545455
v -176 -144 -0.4545455
v -160 -144 -0.4545455
v -176 -160 -0.4545455
v -192 -160 -0.4545455
v -192 -144 -0.4545455
v -176 -144 -0.4545455
v -192 -160 -0.4545455
v -208 -160 -0.4545455
v -208 -144 -0.4545455
v -192 -144 -0.4545455
v -208 -160 -0.4545455
v -224 -160 -0.4545455
v -224 -144 -0.4545455
v -208 -144 -0.4545455
v -224 -160 -0.4545455
v -240 -160 -0.4545455
v -240 -144 -0.4545455
v -224 -144 -0.4545455
v -240 -160 -0.4545455
v -256 -160 -0.4545455
v -256 -144 -0.4545455
v -240 -144 -0.4545455
v -256 -160 -0.4545455
v -272 -160 -0.4545455
v -272 -144 -0.4545455
v -256 -144 -0.4545455
v -272 -160 -0.4545455
v -288 -160 -0.4545455
v -288 -144 -0.4545455
v -272 -144 -0.4545455
v -352 -160 -0.4545455
v -368 -160 -0.4545455
v -368 -144 -0.4545455
v -352 -144 -0.4545455
v -368 -160 -0.4545455
v -384 -160 -0.4545455
v -384 -144 -0.4545455
v -368 -144 -0.4545455
v -384 -160 -0.4545455
v -400 -160 -0.4545455
v -400 -144 -0.4545455
v -384 -144 -0.4545455
v -400 -160 -0.4545455
v -416 -160 -0.4545455
v -416 -144 -0.4545455
v -400 -144 -0.4545455
v -416 -160 -0.4545455
v -432 -160 -0.4545455
v -432 -144 -0.4545455
v -416 -144 -0.4545455
v -432 -160 -0.4545455
v -448 -160 -0.4545455
v -448 -144 -0.4545455
v -432 -144 -0.4545455
v -448 -160 -0.4545455
v -464 -160 -0.4545455
v -464 -144 -0.4545455
v -448 -144 -0.4545455
v -464 -160 -0.4545455
v -480 -160 -0.4545455
v -480 -144 -0.4545455
v -464 -144 -0.4545455
v -480 -160 -0.4545455
v -496 -160 -0.4545455
v -496 -144 -0.4545455
v -480 -144 -0.4545455
v -496 -160 -0.4545455
v -512 -160 -0.4545455
v -512 -144 -0.4545455
v -496 -144 -0.4545455
v -512 -160 -0.4545455
v -528 -160 -0.4545455
v -528 -144 -0.4545455
v -512 -144 -0.4545455
v -112 -176 -0.5
v -128 -176 -0.5
v -128 -160 -0.5
v -112 -160 -0.5
v -128 -176 -0.5
v -144 -176 -0.5
v -144 -160 -0.5
v -128 -160 -0.5
v -144 -176 -0.5
v -160 -176 -0.5
v -160 -160 -0.5
v -144 -160 -0.5
v -160 -176 -0.5
v -176 -176 -0.5
v -176 -160 -0.5
v -160 -160 -0.5
v -176 -176 -0.5
v -192 -176 -0.5
v -192 -160 -0.5
v -176 -160 -0.5
v -192 -176 -0.5
v -208 -176 -0.5
v -208 -160 -0.5
v -192 -160 -0.5
v -208 -176 -0.5
v -224 -176 -0.5
v -224 -160 -0.5
v -208 -160 -0.5
v -224 -176 -0.5
v -240 -176 -0.5
v -240 -160 -0.5
v -224 -160 -0.5
v -240 -176 -0.5
v -256 -176 -0.5
v -256 -160 -0.5
v -240 -160 -0.5
v -256 -176 -0.5
v -272 -176 -0.5
v -272 -160 -0.5
v -256 -160 -0.5
v -272 -176 -0.5
v -288 -176 -0.5
v -288 -160 -0.5
v -272 -160 -0.5
v -288 -176 -0.5
v -304 -176 -0.5
v -304 -160 -0.5
v -288 -160 -0.5
v -304 -176 -0.5
v -320 -176 -0.5
v -320 -160 -0.5
v -304 -160 -0.5
v -320 -176 -0.5
v -336 -176 -0.5
v -336 -160 -0.5
v -320 -160 -0.5
v -336 -176 -0.5
v -352 -176 -0.5
v -352 -160 -0.5
v -336 -160 -0.5
v -352 -176 -0.5
v -368 -176 -0.5
v -368 -160 -0.5
v -352 -160 -0.5
v -368 -176 -0.5
v -384 -176 -0.5
v -384 -160 -0.5
v -368 -160 -0.5
v -384 -176 -0.5
v -400 -176 -0.5
v -400 -160 -0.5
v -384 -160 -0.5
v -400 -176 -0.5
v -416 -176 -0.5
v -416 -160 -0.5
v -400 -160 -0.5
v -416 -176 -0.5
v -432 -176 -0.5
v -432 -160 -0.5
v -416 -160 -0.5
v -432 -176 -0.5
v -448 -176 -0.5
v -448 -160 -0.5
v -432 -160 -0.5
v -448 -176 -0.5
v -464 -176 -0.5
v -464 -160 -0.5
v -448 -160 -0.5
v -464 -176 -0.5
v -480 -176 -0.5
v -480 -160 -0.5
v -464 -160 -0.5
v -480 -176 -0.5
v -496 -176 -0.5
v -496 -160 -0.5
v -480 -160 -0.5
v -496 -176 -0.5
v -512 -176 -0.5
v -512 -160 -0.5
v -496 -160 -0.5
v -512 -176 -0.5
v -528 -176 -0.5
v -528 -160 -0.5
v -512 -160 -0.5
v -112 -192 -0.5454546
v -128 -192 -0.5454546
v -128 -176 -0.5454546
v -112 -176 -0.5454546
v -128 -192 -0.5454546
v -144 -192 -0.5454546
v -144 -176 -0.5454546
v -128 -176 -0.5454546
v -144 -192 -0.5454546
v -160 -192 -0.5454546
v -160 -176 -0.5454546
v -144 -176 -0.5454546
v -160 -192 -0.5454546
v -176 -192 -0.5454546
v -176 -176 -0.5454546
v -160 -176 -0.5454546
v -176 -192 -0.5454546
v -192 -192 -0.5454546
v -192 -176 -0.5454546
v -176 -176 -0.5454546
v -192 -192 -0.5454546
v -208 -192 -0.5454546
v -208 -176 -0.5454546
v -192 -176 -0.5454546
v -208 -192 -0.5454546
v -224 -192 -0.5454546
v -224 -176 -0.5454546
v -208 -176 -0.5454546
v -224 -192 -0.5454546
v -240 -192 -0.5454546
v -240 -176 -0.5454546
v -224 -176 -0.5454546
v -240 -192 -0.5454546
v -256 -192 -0.5454546
v -256 -176 -0.5454546
v -240 -176 -0.5454546
v -256 -192 -0.5454546
v -272 -192 -0.5454546
v -272 -176 -0.5454546
v -256 -176 -0.5454546
v -272 -192 -0.5454546
v -288 -192 -0.5454546
v -288 -176 -0.5454546
v -272 -176 -0.5454546
v -288 -192 -0.5454546
v -304 -192 -0.5454546
v -304 -176 -0.5454546
v -288 -176 -0.5454546
v -304 -192 -0.5454546
v -320 -192 -0.5454546
v -320 -176 -0.5454546
v -304 -176 -0.5454546
v -320 -192 -0.5454546
v -336 -192 -0.5454546
v -336 -176 -0.5454546
v -320 -176 -0.5454546
v -336 -192 -0.5454546
v -352 -192 -0.5454546
v -352 -176 -0.5454546
v -336 -176 -0.5454546
v -352 -192 -0.5454546
v -368 -192 -0.5454546
v -368 -176 -0.5454546
v -352 -176 -0.5454546
v -368 -192 -0.5454546
v -384 -192 -0.5454546
v -384 -176 -0.5454546
v -368 -176 -0.5454546
v -384 -192 -0.5454546
v -400 -192 -0.5454546
v -400 -176 -0.5454546
v -384 -176 -0.5454546
v -400 -192 -0.5454546
v -416 -192 -0.5454546
v -416 -176 -0.5454546
v -400 -176 -0.5454546
v -416 -192 -0.5454546
v -432 -192 -0.5454546
v -432 -176 -0.5454546
v -416 -176 -0.5454546
v -432 -192 -0.5454546
v -448 -192 -0.5454546
v -448 -176 -0.5454546
v -432 -176 -0.5454546
v -448 -192 -0.5454546
v -464 -192 -0.5454546
v -464 -176 -0.5454546
v -448 -176 -0.5454546
v -464 -192 -0.5454546
v -480 -192 -0.5454546
v -480 -176 -0.5454546
v -464 -176 -0.5454546
v -480 -192 -0.5454546
v -496 -192 -0.5454546
v -496 -176 -0.5454546
v -480 -176 -0.5454546
v -496 -192 -0.5454546
v -512 -192 -0.5454546
v -512 -176 -0.5454546
v -496 -176 -0.5454546
v -512 -192 -0.5454546
v -528 -192 -0.5454546
v -528 -176 -0.5454546
v -512 -176 -0.5454546
v -112 -208 -0.5909091
v -128 -208 -0.5909091
v -128 -192 -0.5909091
v -112 -192 -0.5909091
v -128 -208 -0.5909091
v -144 -208 -0.5909091
v -144 -192 -0.5909091
v -128 -192 -0.5909091
v -144 -208 -0.5909091
v -160 -208 -0.5909091
v -160 -192 -0.5909091
v -144 -192 -0.5909091
v -160 -208 -0.5909091
v -176 -208 -0.5909091
v -176 -192 -0.5909091
v -160 -192 -0.5909091
v -176 -208 -0.5909091
v -192 -208 -0.5909091
v -192 -192 -0.5909091
v -176 -192 -0.5909091
v -192 -208 -0.5909091
v -208 -208 -0.5909091
v -208 -192 -0.5909091
v -192 -192 -0.5909091
v -208 -208 -0.5909091
v -224 -208 -0.5909091
v -224 -192 -0.5909091
v -208 -192 -0.5909091
v -224 -208 -0.5909091
v -240 -208 -0.5909091
v -240 -192 -0.5909091
v -224 -192 -0.5909091
v -240 -208 -0.5909091
v -256 -208 -0.5909091
v -256 -192 -0.5909091
v -240 -192 -0.5909091
v -256 -208 -0.5909091
v -272 -208 -0.5909091
v -272 -192 -0.5909091
v -256 -192 -0.5909091
v -272 -208 -0.5909091
v -288 -208 -0.5909091
v -288 -192 -0.5909091
v -272 -192 -0.5909091
v -288 -208 -0.5909091
v -304 -208 -0.5909091
v -304 -192 -0.5909091
v -288 -192 -0.5909091
v -304 -208 -0.5909091
v -320 -208 -0.5909091
v -320 -192 -0.5909091
v -304 -192 -0.5909091
v -320 -208 -0.5909091
v -336 -208 -0.5909091
v -336 -192 -0.5909091
v -320 -192 -0.5909091
v -336 -208 -0.5909091
v -352 -208 -0.5909091
v -352 -192 -0.5909091
v -336 -192 -0.5909091
v -352 -208 -0.5909091
v -368 -208 -0.5909091
v -368 -192 -0.5909091
v -352 -192 -0.5909091
v -368 -208 -0.5909091
v -384 -208 -0.5909091
v -384 -192 -0.5909091
v -368 -192 -0.5909091
v -384 -208 -0.5909091
v -400 -208 -0.5909091
v -400 -192 -0.5909091
v -384 -192 -0.5909091
v -400 -208 -0.5909091
v -416 -208 -0.5909091
v -416 -192 -0.5909091
v -400 -192 -0.5909091
v -416 -208 -0.5909091
v -432 -208 -0.5909091
v -432 -192 -0.5909091
v -416 -192 -0.5909091
v -432 -208 -0.5909091
v -448 -208 -0.5909091
v -448 -192 -0.5909091
v -432 -192 -0.5909091
v -448 -208 -0.5909091
v -464 -208 -0.5909091
v -464 -192 -0.5909091
v -448 -192 -0.5909091
v -464 -208 -0.5909091
v -480 -208 -0.5909091
v -480 -192 -0.5909091
v -464 -192 -0.5909091
v -480 -208 -0.5909091
v -496 -208 -0.5909091
v -496 -192 -0.5909091
v -480 -192 -0.5909091
v -496 -208 -0.5909091
v -512 -208 -0.5909091
v -512 -192 -0.5909091
v -496 -192 -0.5909091
v -512 -208 -0.5909091
v -528 -208 -0.5909091
v -528 -192 -0.5909091
v -512 -192 -0.5909091
v -112 -224 -0.6363636
v -128 -224 -0.6363636
v -128 -208 -0.6363636
v -112 -208 -0.6363636
v -128 -224 -0.6363636
v -144 -224 -0.6363636
v -144 -208 -0.6363636
v -128 -208 -0.6363636
v -144 -224 -0.6363636
v -160 -224 -0.6363636
v -160 -208 -0.6363636
v -144 -208 -0.6363636
v -160 -224 -0.6363636
v -176 -224 -0.6363636
v -176 -208 -0.6363636
v -160 -208 -0.6363636
v -176 -224 -0.6363636
v -192 -224 -0.6363636
v -192 -208 -0.6363636
v -176 -208 -0.6363636
v -192 -224 -0.6363636
v -208 -224 -0.6363636
v -208 -208 -0.6363636
v -192 -208 -0.6363636
v -208 -224 -0.6363636
v -224 -224 -0.6363636
v -224 -208 -0.6363636
v -208 -208 -0.6363636
v -224 -224 -0.6363636
v -240 -224 -0.6363636
v -240 -208 -0.6363636
v -224 -208 -0.6363636
v -240 -224 -0.6363636
v -256 -224 -0.6363636
v -256 -208 -0.6363636
v -240 -208 -0.6363636
v -256 -224 -0.6363636
v -272 -224 -0.6363636
v -272 -208 -0.6363636
v -256 -208 -0.6363636
v -272 -224 -0.6363636
v -288 -224 -0.6363636
v -288 -208 -0.6363636
v -272 -208 -0.6363636
v -288 -224 -0.6363636
v -304 -224 -0.6363636
v -304 -208 -0.6363636
v -288 -208 -0.6363636
v -304 -224 -0.6363636
v -320 -224 -0.6363636
v -320 -208 -0.6363636
v -304 -208 -0.6363636
v -320 -224 -0.6363636
v -336 -224 -0.6363636
v -336 -208 -0.6363636
v -320 -208 -0.6363636
v -336 -224 -0.6363636
v -352 -224 -0.6363636
v -352 -208 -0.6363636
v -336 -208 -0.6363636
v -352 -224 -0.6363636
v -368 -224 -0.6363636
v -368 -208 -0.6363636
v -352 -208 -0.6363636
v -368 -224 -0.6363636
v -384 -224 -0.6363636
v -384 -208 -0.6363636
v -368 -208 -0.6363636
v -384 -224 -0.6363636
v -400 -224 -0.6363636
v -400 -208 -0.6363636
v -384 -208 -0.6363636
v -400 -224 -0.6363636
v -416 -224 -0.6363636
v -416 -208 -0.6363636
v -400 -208 -0.6363636
v -416 -224 -0.6363636
v -432 -224 -0.6363636
v -432 -208 -0.6363636
v -416 -208 -0.6363636
v -432 -224 -0.6363636
v -448 -224 -0.6363636
v -448 -208 -0.6363636
v -432 -208 -0.6363636
v -448 -224 -0.6363636
v -464 -224 -0.6363636
v -464 -208 -0.6363636
v -448 -208 -0.6363636
v -464 -224 -0.6363636
v -480 -224 -0.6363636
v -480 -208 -0.6363636
v -464 -208 -0.6363636
v -480 -224 -0.6363636
v -496 -224 -0.6363636
v -496 -208 -0.6363636
v -480 -208 -0.6363636
v -496 -224 -0.6363636
v -512 -224 -0.6363636
v -512 -208 -0.6363636
v -496 -208 -0.6363636
v -512 -224 -0.6363636
v -528 -224 -0.6363636
v -528 -208 -0.6363636
v -512 -208 -0.6363636
v -112 -240 -0.6818182
v -128 -240 -0.6818182
v -128 -224 -0.6818182
v -112 -224 -0.6818182
v -128 -240 -0.6818182
v -144 -240 -0.6818182
v -144 -224 -0.6818182
v -128 -224 -0.6818182
v -144 -240 -0.6818182
v -160 -240 -0.6818182
v -160 -224 -0.6818182
v -144 -224 -0.6818182
v -160 -240 -0.6818182
v -176 -240 -0.6818182
v -176 -224 -0.6818182
v -160 -224 -0.6818182
v -176 -240 -0.6818182
v -192 -240 -0.6818182
v -192 -224 -0.6818182
v -176 -224 -0.6818182
v -192 -240 -0.6818182
v -208 -240 -0.6818182
v -208 -224 -0.6818182
v -192 -224 -0.6818182
v -208 -240 -0.6818182
v -224 -240 -0.6818182
v -224 -224 -0.6818182
v -208 -224 -0.6818182
v -224 -240 -0.6818182
v -240 -240 -0.6818182
v -240 -224 -0.6818182
v -224 -224 -0.6818182
v -240 -240 -0.6818182
v -256 -240 -0.6818182
v -256 -224 -0.6818182
v -240 -224 -0.6818182
v -256 -240 -0.6818182
v -272 -240 -0.6818182
v -272 -224 -0.6818182
v -256 -224 -0.6818182
v -272 -240 -0.6818182
v -288 -240 -0.6818182
v -288 -224 -0.6818182
v -272 -224 -0.6818182
v -288 -240 -0.6818182
v -304 -240 -0.6818182
v -304 -224 -0.6818182
v -288 -224 -0.6818182
v -304 -240 -0.6818182
v -320 -240 -0.6818182
v -320 -224 -0.6818182
v -304 -224 -0.6818182
v -320 -240 -0.6818182
v -336 -240 -0.6818182
v -336 -224 -0.6818182
v -320 -224 -0.6818182
v -336 -240 -0.6818182
v -352 -240 -0.6818182
v -352 -224 -0.6818182
v -336 -224 -0.6818182
v -352 -240 -0.6818182
v -368 -240 -0.6818182
v -368 -224 -0.6818182
v -352 -224 -0.6818182
v -368 -240 -0.6818182
v -384 -240 -0.6818182
v -384 -224 -0.6818182
v -368 -224 -0.6818182
v -384 -240 -0.6818182
v -400 -240 -0.6818182
v -400 -224 -0.6818182
v -384 -224 -0.6818182
v -400 -240 -0.6818182
v -416 -240 -0.6818182
v -416 -224 -0.6818182
v -400 -224 -0.6818182
v -416 -240 -0.6818182
v -432 -240 -0.6818182
v -432 -224 -0.6818182
v -416 -224 -0.6818182
v -432 -240 -0.6818182
v -448 -240 -0.6818182
v -448 -224 -0.6818182
v -432 -224 -0.6818182
v -448 -240 -0.6818182
v -464 -240 -0.6818182
v -464 -224 -0.6818182
v -448 -224 -0.6818182
v -464 -240 -0.6818182
v -480 -240 -0.6818182
v -480 -224 -0.6818182
v -464 -224 -0.6818182
v -480 -240 -0.6818182
v -496 -240 -0.6818182
v -496 -224 -0.6818182
v -480 -224 -0.6818182
v -496 -240 -0.6818182
v -512 -240 -0.6818182
v -512 -224 -0.6818182
v -496 -224 -0.6818182
v -512 -240 -0.6818182
v -528 -240 -0.6818182
v -528 -224 -0.6818182
v -512 -224 -0.6818182

# Texture cooridinates (Count = 9)
vt 0.21875 0.65625
vt 0.25 0.65625
vt 0.25 0.6875
vt 0.21875 0.6875
vt 0.28125 0.65625
vt 0.28125 0.6875
vt 0.21875 0.625
vt 0.25 0.625
vt 0.28125 0.625

# Normal
vn 0 0 -1

# Mesh description
g Biome_1_Dungeon_Map_C1_mesh_0002

# Faces
f 1/1/1 2/2/1 3/3/1 4/4/1
f 5/2/1 6/5/1 7/6/1 8/3/1
f 9/1/1 10/2/1 11/3/1 12/4/1
f 13/2/1 14/5/1 15/6/1 16/3/1
f 17/1/1 18/2/1 19/3/1 20/4/1
f 21/2/1 22/5/1 23/6/1 24/3/1
f 25/1/1 26/2/1 27/3/1 28/4/1
f 29/2/1 30/5/1 31/6/1 32/3/1
f 33/1/1 34/2/1 35/3/1 36/4/1
f 37/2/1 38/5/1 39/6/1 40/3/1
f 41/1/1 42/2/1 43/3/1 44/4/1
f 45/2/1 46/5/1 47/6/1 48/3/1
f 49/1/1 50/2/1 51/3/1 52/4/1
f 53/2/1 54/5/1 55/6/1 56/3/1
f 57/1/1 58/2/1 59/3/1 60/4/1
f 61/2/1 62/5/1 63/6/1 64/3/1
f 65/1/1 66/2/1 67/3/1 68/4/1
f 69/2/1 70/5/1 71/6/1 72/3/1
f 73/1/1 74/2/1 75/3/1 76/4/1
f 77/2/1 78/5/1 79/6/1 80/3/1
f 81/1/1 82/2/1 83/3/1 84/4/1
f 85/2/1 86/5/1 87/6/1 88/3/1
f 89/7/1 90/8/1 91/2/1 92/1/1
f 93/8/1 94/9/1 95/5/1 96/2/1
f 97/7/1 98/8/1 99/2/1 100/1/1
f 101/8/1 102/9/1 103/5/1 104/2/1
f 105/7/1 106/8/1 107/2/1 108/1/1
f 109/8/1 110/9/1 111/5/1 112/2/1
f 113/7/1 114/8/1 115/2/1 116/1/1
f 117/8/1 118/9/1 119/5/1 120/2/1
f 121/7/1 122/8/1 123/2/1 124/1/1
f 125/8/1 126/9/1 127/5/1 128/2/1
f 129/7/1 130/8/1 131/2/1 132/1/1
f 133/8/1 134/9/1 135/5/1 136/2/1
f 137/7/1 138/8/1 139/2/1 140/1/1
f 141/8/1 142/9/1 143/5/1 144/2/1
f 145/7/1 146/8/1 147/2/1 148/1/1
f 149/8/1 150/9/1 151/5/1 152/2/1
f 153/7/1 154/8/1 155/2/1 156/1/1
f 157/8/1 158/9/1 159/5/1 160/2/1
f 161/7/1 162/8/1 163/2/1 164/1/1
f 165/8/1 166/9/1 167/5/1 168/2/1
f 169/7/1 170/8/1 171/2/1 172/1/1
f 173/8/1 174/9/1 175/5/1 176/2/1
f 177/1/1 178/2/1 179/3/1 180/4/1
f 181/2/1 182/5/1 183/6/1 184/3/1
f 185/1/1 186/2/1 187/3/1 188/4/1
f 189/2/1 190/5/1 191/6/1 192/3/1
f 193/1/1 194/2/1 195/3/1 196/4/1
f 197/2/1 198/5/1 199/6/1 200/3/1
f 201/1/1 202/2/1 203/3/1 204/4/1
f 205/2/1 206/5/1 207/6/1 208/3/1
f 209/1/1 210/2/1 211/3/1 212/4/1
f 213/2/1 214/5/1 215/6/1 216/3/1
f 217/1/1 218/2/1 219/3/1 220/4/1
f 221/2/1 222/5/1 223/6/1 224/3/1
f 225/1/1 226/2/1 227/3/1 228/4/1
f 229/2/1 230/5/1 231/6/1 232/3/1
f 233/1/1 234/2/1 235/3/1 236/4/1
f 237/2/1 238/5/1 239/6/1 240/3/1
f 241/1/1 242/2/1 243/3/1 244/4/1
f 245/2/1 246/5/1 247/6/1 248/3/1
f 249/1/1 250/2/1 251/3/1 252/4/1
f 253/2/1 254/5/1 255/6/1 256/3/1
f 257/1/1 258/2/1 259/3/1 260/4/1
f 261/2/1 262/5/1 263/6/1 264/3/1
f 265/7/1 266/8/1 267/2/1 268/1/1
f 269/8/1 270/9/1 271/5/1 272/2/1
f 273/7/1 274/8/1 275/2/1 276/1/1
f 277/8/1 278/9/1 279/5/1 280/2/1
f 281/7/1 282/8/1 283/2/1 284/1/1
f 285/8/1 286/9/1 287/5/1 288/2/1
f 289/7/1 290/8/1 291/2/1 292/1/1
f 293/8/1 294/9/1 295/5/1 296/2/1
f 297/7/1 298/8/1 299/2/1 300/1/1
f 301/8/1 302/9/1 303/5/1 304/2/1
f 305/7/1 306/8/1 307/2/1 308/1/1
f 309/8/1 310/9/1 311/5/1 312/2/1
f 313/7/1 314/8/1 315/2/1 316/1/1
f 317/8/1 318/9/1 319/5/1 320/2/1
f 321/7/1 322/8/1 323/2/1 324/1/1
f 325/8/1 326/9/1 327/5/1 328/2/1
f 329/7/1 330/8/1 331/2/1 332/1/1
f 333/8/1 334/9/1 335/5/1 336/2/1
f 337/7/1 338/8/1 339/2/1 340/1/1
f 341/8/1 342/9/1 343/5/1 344/2/1
f 345/7/1 346/8/1 347/2/1 348/1/1
f 349/8/1 350/9/1 351/5/1 352/2/1
f 353/7/1 354/8/1 355/2/1 356/1/1
f 357/8/1 358/9/1 359/5/1 360/2/1
f 361/7/1 362/8/1 363/2/1 364/1/1
f 365/8/1 366/9/1 367/5/1 368/2/1
f 369/1/1 370/2/1 371/3/1 372/4/1
f 373/2/1 374/5/1 375/6/1 376/3/1
f 377/1/1 378/2/1 379/3/1 380/4/1
f 381/2/1 382/5/1 383/6/1 384/3/1
f 385/1/1 386/2/1 387/3/1 388/4/1
f 389/2/1 390/5/1 391/6/1 392/3/1
f 393/1/1 394/2/1 395/3/1 396/4/1
f 397/2/1 398/5/1 399/6/1 400/3/1
f 401/1/1 402/2/1 403/3/1 404/4/1
f 405/2/1 406/5/1 407/6/1 408/3/1
f 409/1/1 410/2/1 411/3/1 412/4/1
f 413/2/1 414/5/1 415/6/1 416/3/1
f 417/1/1 418/2/1 419/3/1 420/4/1
f 421/2/1 422/5/1 423/6/1 424/3/1
f 425/1/1 426/2/1 427/3/1 428/4/1
f 429/2/1 430/5/1 431/6/1 432/3/1
f 433/1/1 434/2/1 435/3/1 436/4/1
f 437/2/1 438/5/1 439/6/1 440/3/1
f 441/1/1 442/2/1 443/3/1 444/4/1
f 445/2/1 446/5/1 447/6/1 448/3/1
f 449/1/1 450/2/1 451/3/1 452/4/1
f 453/2/1 454/5/1 455/6/1 456/3/1
f 457/1/1 458/2/1 459/3/1 460/4/1
f 461/2/1 462/5/1 463/6/1 464/3/1
f 465/1/1 466/2/1 467/3/1 468/4/1
f 469/2/1 470/5/1 471/6/1 472/3/1
f 473/7/1 474/8/1 475/2/1 476/1/1
f 477/8/1 478/9/1 479/5/1 480/2/1
f 481/7/1 482/8/1 483/2/1 484/1/1
f 485/8/1 486/9/1 487/5/1 488/2/1
f 489/7/1 490/8/1 491/2/1 492/1/1
f 493/8/1 494/9/1 495/5/1 496/2/1
f 497/7/1 498/8/1 499/2/1 500/1/1
f 501/8/1 502/9/1 503/5/1 504/2/1
f 505/7/1 506/8/1 507/2/1 508/1/1
f 509/8/1 510/9/1 511/5/1 512/2/1
f 513/7/1 514/8/1 515/2/1 516/1/1
f 517/8/1 518/9/1 519/5/1 520/2/1
f 521/7/1 522/8/1 523/2/1 524/1/1
f 525/8/1 526/9/1 527/5/1 528/2/1
f 529/7/1 530/8/1 531/2/1 532/1/1
f 533/8/1 534/9/1 535/5/1 536/2/1
f 537/7/1 538/8/1 539/2/1 540/1/1
f 541/8/1 542/9/1 543/5/1 544/2/1
f 545/7/1 546/8/1 547/2/1 548/1/1
f 549/8/1 550/9/1 551/5/1 552/2/1
f 553/7/1 554/8/1 555/2/1 556/1/1
f 557/8/1 558/9/1 559/5/1 560/2/1
f 561/7/1 562/8/1 563/2/1 564/1/1
f 565/8/1 566/9/1 567/5/1 568/2/1
f 569/7/1 570/8/1 571/2/1 572/1/1
f 573/8/1 574/9/1 575/5/1 576/2/1
f 577/1/1 578/2/1 579/3/1 580/4/1
f 581/2/1 582/5/1 583/6/1 584/3/1
f 585/1/1 586/2/1 587/3/1 588/4/1
f 589/2/1 590/5/1 591/6/1 592/3/1
f 593/1/1 594/2/1 595/3/1 596/4/1
f 597/2/1 598/5/1 599/6/1 600/3/1
f 601/1/1 602/2/1 603/3/1 604/4/1
f 605/2/1 606/5/1 607/6/1 608/3/1
f 609/1/1 610/2/1 611/3/1 612/4/1
f 613/2/1 614/5/1 615/6/1 616/3/1
f 617/1/1 618/2/1 619/3/1 620/4/1
f 621/2/1 622/5/1 623/6/1 624/3/1
f 625/1/1 626/2/1 627/3/1 628/4/1
f 629/2/1 630/5/1 631/6/1 632/3/1
f 633/1/1 634/2/1 635/3/1 636/4/1
f 637/2/1 638/5/1 639/6/1 640/3/1
f 641/1/1 642/2/1 643/3/1 644/4/1
f 645/2/1 646/5/1 647/6/1 648/3/1
f 649/1/1 650/2/1 651/3/1 652/4/1
f 653/2/1 654/5/1 655/6/1 656/3/1
f 657/1/1 658/2/1 659/3/1 660/4/1
f 661/2/1 662/5/1 663/6/1 664/3/1
f 665/1/1 666/2/1 667/3/1 668/4/1
f 669/2/1 670/5/1 671/6/1 672/3/1
f 673/1/1 674/2/1 675/3/1 676/4/1
f 677/2/1 678/5/1 679/6/1 680/3/1
f 681/7/1 682/8/1 683/2/1 684/1/1
f 685/8/1 686/9/1 687/5/1 688/2/1
f 689/7/1 690/8/1 691/2/1 692/1/1
f 693/8/1 694/9/1 695/5/1 696/2/1
f 697/7/1 698/8/1 699/2/1 700/1/1
f 701/8/1 702/9/1 703/5/1 704/2/1
f 705/7/1 706/8/1 707/2/1 708/1/1
f 709/8/1 710/9/1 711/5/1 712/2/1
f 713/7/1 714/8/1 715/2/1 716/1/1
f 717/8/1 718/9/1 719/5/1 720/2/1
f 721/7/1 722/8/1 723/2/1 724/1/1
f 725/8/1 726/9/1 727/5/1 728/2/1
f 729/7/1 730/8/1 731/2/1 732/1/1
f 733/8/1 734/9/1 735/5/1 736/2/1
f 737/7/1 738/8/1 739/2/1 740/1/1
f 741/8/1 742/9/1 743/5/1 744/2/1
f 745/7/1 746/8/1 747/2/1 748/1/1
f 749/8/1 750/9/1 751/5/1 752/2/1
f 753/7/1 754/8/1 755/2/1 756/1/1
f 757/8/1 758/9/1 759/5/1 760/2/1
f 761/7/1 762/8/1 763/2/1 764/1/1
f 765/8/1 766/9/1 767/5/1 768/2/1
f 769/7/1 770/8/1 771/2/1 772/1/1
f 773/8/1 774/9/1 775/5/1 776/2/1
f 777/7/1 778/8/1 779/2/1 780/1/1
f 781/8/1 782/9/1 783/5/1 784/2/1

