# Tiled2Unity generated file. Do not modify by hand.
# Wavefront file for 'Biome_1_Dungeon_Map_C1_mesh_0003.obj'

# Vertices (Count = 280)
v -112 -128 -0.3636364
v -128 -128 -0.3636364
v -128 -112 -0.3636364
v -112 -112 -0.3636364
v -128 -128 -0.3636364
v -144 -128 -0.3636364
v -144 -112 -0.3636364
v -128 -112 -0.3636364
v -144 -128 -0.3636364
v -160 -128 -0.3636364
v -160 -112 -0.3636364
v -144 -112 -0.3636364
v -160 -128 -0.3636364
v -176 -128 -0.3636364
v -176 -112 -0.3636364
v -160 -112 -0.3636364
v -176 -128 -0.3636364
v -192 -128 -0.3636364
v -192 -112 -0.3636364
v -176 -112 -0.3636364
v -192 -128 -0.3636364
v -208 -128 -0.3636364
v -208 -112 -0.3636364
v -192 -112 -0.3636364
v -208 -128 -0.3636364
v -224 -128 -0.3636364
v -224 -112 -0.3636364
v -208 -112 -0.3636364
v -224 -128 -0.3636364
v -240 -128 -0.3636364
v -240 -112 -0.3636364
v -224 -112 -0.3636364
v -240 -128 -0.3636364
v -256 -128 -0.3636364
v -256 -112 -0.3636364
v -240 -112 -0.3636364
v -256 -128 -0.3636364
v -272 -128 -0.3636364
v -272 -112 -0.3636364
v -256 -112 -0.3636364
v -272 -128 -0.3636364
v -288 -128 -0.3636364
v -288 -112 -0.3636364
v -272 -112 -0.3636364
v -352 -128 -0.3636364
v -368 -128 -0.3636364
v -368 -112 -0.3636364
v -352 -112 -0.3636364
v -368 -128 -0.3636364
v -384 -128 -0.3636364
v -384 -112 -0.3636364
v -368 -112 -0.3636364
v -384 -128 -0.3636364
v -400 -128 -0.3636364
v -400 -112 -0.3636364
v -384 -112 -0.3636364
v -400 -128 -0.3636364
v -416 -128 -0.3636364
v -416 -112 -0.3636364
v -400 -112 -0.3636364
v -416 -128 -0.3636364
v -432 -128 -0.3636364
v -432 -112 -0.3636364
v -416 -112 -0.3636364
v -432 -128 -0.3636364
v -448 -128 -0.3636364
v -448 -112 -0.3636364
v -432 -112 -0.3636364
v -448 -128 -0.3636364
v -464 -128 -0.3636364
v -464 -112 -0.3636364
v -448 -112 -0.3636364
v -464 -128 -0.3636364
v -480 -128 -0.3636364
v -480 -112 -0.3636364
v -464 -112 -0.3636364
v -480 -128 -0.3636364
v -496 -128 -0.3636364
v -496 -112 -0.3636364
v -480 -112 -0.3636364
v -496 -128 -0.3636364
v -512 -128 -0.3636364
v -512 -112 -0.3636364
v -496 -112 -0.3636364
v -512 -128 -0.3636364
v -528 -128 -0.3636364
v -528 -112 -0.3636364
v -512 -112 -0.3636364
v -112 -144 -0.4090909
v -128 -144 -0.4090909
v -128 -128 -0.4090909
v -112 -128 -0.4090909
v -272 -144 -0.4090909
v -288 -144 -0.4090909
v -288 -128 -0.4090909
v -272 -128 -0.4090909
v -352 -144 -0.4090909
v -368 -144 -0.4090909
v -368 -128 -0.4090909
v -352 -128 -0.4090909
v -512 -144 -0.4090909
v -528 -144 -0.4090909
v -528 -128 -0.4090909
v -512 -128 -0.4090909
v -112 -160 -0.4545455
v -128 -160 -0.4545455
v -128 -144 -0.4545455
v -112 -144 -0.4545455
v -272 -160 -0.4545455
v -288 -160 -0.4545455
v -288 -144 -0.4545455
v -272 -144 -0.4545455
v -352 -160 -0.4545455
v -368 -160 -0.4545455
v -368 -144 -0.4545455
v -352 -144 -0.4545455
v -512 -160 -0.4545455
v -528 -160 -0.4545455
v -528 -144 -0.4545455
v -512 -144 -0.4545455
v -112 -176 -0.5
v -128 -176 -0.5
v -128 -160 -0.5
v -112 -160 -0.5
v -272 -176 -0.5
v -288 -176 -0.5
v -288 -160 -0.5
v -272 -160 -0.5
v -288 -176 -0.5
v -304 -176 -0.5
v -304 -160 -0.5
v -288 -160 -0.5
v -304 -176 -0.5
v -320 -176 -0.5
v -320 -160 -0.5
v -304 -160 -0.5
v -320 -176 -0.5
v -336 -176 -0.5
v -336 -160 -0.5
v -320 -160 -0.5
v -336 -176 -0.5
v -352 -176 -0.5
v -352 -160 -0.5
v -336 -160 -0.5
v -352 -176 -0.5
v -368 -176 -0.5
v -368 -160 -0.5
v -352 -160 -0.5
v -512 -176 -0.5
v -528 -176 -0.5
v -528 -160 -0.5
v -512 -160 -0.5
v -112 -192 -0.5454546
v -128 -192 -0.5454546
v -128 -176 -0.5454546
v -112 -176 -0.5454546
v -512 -192 -0.5454546
v -528 -192 -0.5454546
v -528 -176 -0.5454546
v -512 -176 -0.5454546
v -112 -208 -0.5909091
v -128 -208 -0.5909091
v -128 -192 -0.5909091
v -112 -192 -0.5909091
v -512 -208 -0.5909091
v -528 -208 -0.5909091
v -528 -192 -0.5909091
v -512 -192 -0.5909091
v -112 -224 -0.6363636
v -128 -224 -0.6363636
v -128 -208 -0.6363636
v -112 -208 -0.6363636
v -512 -224 -0.6363636
v -528 -224 -0.6363636
v -528 -208 -0.6363636
v -512 -208 -0.6363636
v -112 -240 -0.6818182
v -128 -240 -0.6818182
v -128 -224 -0.6818182
v -112 -224 -0.6818182
v -128 -240 -0.6818182
v -144 -240 -0.6818182
v -144 -224 -0.6818182
v -128 -224 -0.6818182
v -144 -240 -0.6818182
v -160 -240 -0.6818182
v -160 -224 -0.6818182
v -144 -224 -0.6818182
v -160 -240 -0.6818182
v -176 -240 -0.6818182
v -176 -224 -0.6818182
v -160 -224 -0.6818182
v -176 -240 -0.6818182
v -192 -240 -0.6818182
v -192 -224 -0.6818182
v -176 -224 -0.6818182
v -192 -240 -0.6818182
v -208 -240 -0.6818182
v -208 -224 -0.6818182
v -192 -224 -0.6818182
v -208 -240 -0.6818182
v -224 -240 -0.6818182
v -224 -224 -0.6818182
v -208 -224 -0.6818182
v -224 -240 -0.6818182
v -240 -240 -0.6818182
v -240 -224 -0.6818182
v -224 -224 -0.6818182
v -240 -240 -0.6818182
v -256 -240 -0.6818182
v -256 -224 -0.6818182
v -240 -224 -0.6818182
v -256 -240 -0.6818182
v -272 -240 -0.6818182
v -272 -224 -0.6818182
v -256 -224 -0.6818182
v -272 -240 -0.6818182
v -288 -240 -0.6818182
v -288 -224 -0.6818182
v -272 -224 -0.6818182
v -288 -240 -0.6818182
v -304 -240 -0.6818182
v -304 -224 -0.6818182
v -288 -224 -0.6818182
v -304 -240 -0.6818182
v -320 -240 -0.6818182
v -320 -224 -0.6818182
v -304 -224 -0.6818182
v -320 -240 -0.6818182
v -336 -240 -0.6818182
v -336 -224 -0.6818182
v -320 -224 -0.6818182
v -336 -240 -0.6818182
v -352 -240 -0.6818182
v -352 -224 -0.6818182
v -336 -224 -0.6818182
v -352 -240 -0.6818182
v -368 -240 -0.6818182
v -368 -224 -0.6818182
v -352 -224 -0.6818182
v -368 -240 -0.6818182
v -384 -240 -0.6818182
v -384 -224 -0.6818182
v -368 -224 -0.6818182
v -384 -240 -0.6818182
v -400 -240 -0.6818182
v -400 -224 -0.6818182
v -384 -224 -0.6818182
v -400 -240 -0.6818182
v -416 -240 -0.6818182
v -416 -224 -0.6818182
v -400 -224 -0.6818182
v -416 -240 -0.6818182
v -432 -240 -0.6818182
v -432 -224 -0.6818182
v -416 -224 -0.6818182
v -432 -240 -0.6818182
v -448 -240 -0.6818182
v -448 -224 -0.6818182
v -432 -224 -0.6818182
v -448 -240 -0.6818182
v -464 -240 -0.6818182
v -464 -224 -0.6818182
v -448 -224 -0.6818182
v -464 -240 -0.6818182
v -480 -240 -0.6818182
v -480 -224 -0.6818182
v -464 -224 -0.6818182
v -480 -240 -0.6818182
v -496 -240 -0.6818182
v -496 -224 -0.6818182
v -480 -224 -0.6818182
v -496 -240 -0.6818182
v -512 -240 -0.6818182
v -512 -224 -0.6818182
v -496 -224 -0.6818182
v -512 -240 -0.6818182
v -528 -240 -0.6818182
v -528 -224 -0.6818182
v -512 -224 -0.6818182

# Texture cooridinates (Count = 24)
vt 0.21875 0.8125
vt 0.25 0.8125
vt 0.25 0.84375
vt 0.21875 0.84375
vt 0.25 0.75
vt 0.28125 0.75
vt 0.28125 0.78125
vt 0.25 0.78125
vt 0.28125 0.8125
vt 0.28125 0.84375
vt 0.21875 0.6875
vt 0.25 0.6875
vt 0.25 0.71875
vt 0.21875 0.71875
vt 0.28125 0.6875
vt 0.28125 0.71875
vt 0.28125 0.65625
vt 0.3125 0.65625
vt 0.3125 0.6875
vt 0.34375 0.65625
vt 0.34375 0.6875
vt 0.21875 0.78125
vt 0.3125 0.75
vt 0.3125 0.78125

# Normal
vn 0 0 -1

# Mesh description
g Biome_1_Dungeon_Map_C1_mesh_0003

# Faces
f 1/1/1 2/2/1 3/3/1 4/4/1
f 5/5/1 6/6/1 7/7/1 8/8/1
f 9/5/1 10/6/1 11/7/1 12/8/1
f 13/5/1 14/6/1 15/7/1 16/8/1
f 17/5/1 18/6/1 19/7/1 20/8/1
f 21/5/1 22/6/1 23/7/1 24/8/1
f 25/5/1 26/6/1 27/7/1 28/8/1
f 29/5/1 30/6/1 31/7/1 32/8/1
f 33/5/1 34/6/1 35/7/1 36/8/1
f 37/5/1 38/6/1 39/7/1 40/8/1
f 41/2/1 42/9/1 43/10/1 44/3/1
f 45/1/1 46/2/1 47/3/1 48/4/1
f 49/5/1 50/6/1 51/7/1 52/8/1
f 53/5/1 54/6/1 55/7/1 56/8/1
f 57/5/1 58/6/1 59/7/1 60/8/1
f 61/5/1 62/6/1 63/7/1 64/8/1
f 65/5/1 66/6/1 67/7/1 68/8/1
f 69/5/1 70/6/1 71/7/1 72/8/1
f 73/5/1 74/6/1 75/7/1 76/8/1
f 77/5/1 78/6/1 79/7/1 80/8/1
f 81/5/1 82/6/1 83/7/1 84/8/1
f 85/2/1 86/9/1 87/10/1 88/3/1
f 89/11/1 90/12/1 91/13/1 92/14/1
f 93/12/1 94/15/1 95/16/1 96/13/1
f 97/11/1 98/12/1 99/13/1 100/14/1
f 101/12/1 102/15/1 103/16/1 104/13/1
f 105/11/1 106/12/1 107/13/1 108/14/1
f 109/12/1 110/15/1 111/16/1 112/13/1
f 113/11/1 114/12/1 115/13/1 116/14/1
f 117/12/1 118/15/1 119/16/1 120/13/1
f 121/11/1 122/12/1 123/13/1 124/14/1
f 125/17/1 126/18/1 127/19/1 128/15/1
f 129/5/1 130/6/1 131/7/1 132/8/1
f 133/5/1 134/6/1 135/7/1 136/8/1
f 137/5/1 138/6/1 139/7/1 140/8/1
f 141/5/1 142/6/1 143/7/1 144/8/1
f 145/18/1 146/20/1 147/21/1 148/19/1
f 149/12/1 150/15/1 151/16/1 152/13/1
f 153/11/1 154/12/1 155/13/1 156/14/1
f 157/12/1 158/15/1 159/16/1 160/13/1
f 161/11/1 162/12/1 163/13/1 164/14/1
f 165/12/1 166/15/1 167/16/1 168/13/1
f 169/11/1 170/12/1 171/13/1 172/14/1
f 173/12/1 174/15/1 175/16/1 176/13/1
f 177/22/1 178/8/1 179/2/1 180/1/1
f 181/6/1 182/23/1 183/24/1 184/7/1
f 185/6/1 186/23/1 187/24/1 188/7/1
f 189/6/1 190/23/1 191/24/1 192/7/1
f 193/6/1 194/23/1 195/24/1 196/7/1
f 197/6/1 198/23/1 199/24/1 200/7/1
f 201/6/1 202/23/1 203/24/1 204/7/1
f 205/6/1 206/23/1 207/24/1 208/7/1
f 209/6/1 210/23/1 211/24/1 212/7/1
f 213/6/1 214/23/1 215/24/1 216/7/1
f 217/6/1 218/23/1 219/24/1 220/7/1
f 221/6/1 222/23/1 223/24/1 224/7/1
f 225/6/1 226/23/1 227/24/1 228/7/1
f 229/6/1 230/23/1 231/24/1 232/7/1
f 233/6/1 234/23/1 235/24/1 236/7/1
f 237/6/1 238/23/1 239/24/1 240/7/1
f 241/6/1 242/23/1 243/24/1 244/7/1
f 245/6/1 246/23/1 247/24/1 248/7/1
f 249/6/1 250/23/1 251/24/1 252/7/1
f 253/6/1 254/23/1 255/24/1 256/7/1
f 257/6/1 258/23/1 259/24/1 260/7/1
f 261/6/1 262/23/1 263/24/1 264/7/1
f 265/6/1 266/23/1 267/24/1 268/7/1
f 269/6/1 270/23/1 271/24/1 272/7/1
f 273/6/1 274/23/1 275/24/1 276/7/1
f 277/8/1 278/7/1 279/9/1 280/2/1

