# Tiled2Unity generated file. Do not modify by hand.
# Wavefront file for 'Biome_1_Dungeon_Map_C1_mesh_0005.obj'

# Vertices (Count = 96)
v -112 -80 -0.2272727
v -128 -80 -0.2272727
v -128 -64 -0.2272727
v -112 -64 -0.2272727
v -128 -80 -0.2272727
v -144 -80 -0.2272727
v -144 -64 -0.2272727
v -128 -64 -0.2272727
v -144 -80 -0.2272727
v -160 -80 -0.2272727
v -160 -64 -0.2272727
v -144 -64 -0.2272727
v -160 -80 -0.2272727
v -176 -80 -0.2272727
v -176 -64 -0.2272727
v -160 -64 -0.2272727
v -176 -80 -0.2272727
v -192 -80 -0.2272727
v -192 -64 -0.2272727
v -176 -64 -0.2272727
v -192 -80 -0.2272727
v -208 -80 -0.2272727
v -208 -64 -0.2272727
v -192 -64 -0.2272727
v -208 -80 -0.2272727
v -224 -80 -0.2272727
v -224 -64 -0.2272727
v -208 -64 -0.2272727
v -224 -80 -0.2272727
v -240 -80 -0.2272727
v -240 -64 -0.2272727
v -224 -64 -0.2272727
v -240 -80 -0.2272727
v -256 -80 -0.2272727
v -256 -64 -0.2272727
v -240 -64 -0.2272727
v -256 -80 -0.2272727
v -272 -80 -0.2272727
v -272 -64 -0.2272727
v -256 -64 -0.2272727
v -112 -96 -0.2727273
v -128 -96 -0.2727273
v -128 -80 -0.2727273
v -112 -80 -0.2727273
v -128 -96 -0.2727273
v -144 -96 -0.2727273
v -144 -80 -0.2727273
v -128 -80 -0.2727273
v -144 -96 -0.2727273
v -160 -96 -0.2727273
v -160 -80 -0.2727273
v -144 -80 -0.2727273
v -160 -96 -0.2727273
v -176 -96 -0.2727273
v -176 -80 -0.2727273
v -160 -80 -0.2727273
v -176 -96 -0.2727273
v -192 -96 -0.2727273
v -192 -80 -0.2727273
v -176 -80 -0.2727273
v -192 -96 -0.2727273
v -208 -96 -0.2727273
v -208 -80 -0.2727273
v -192 -80 -0.2727273
v -208 -96 -0.2727273
v -224 -96 -0.2727273
v -224 -80 -0.2727273
v -208 -80 -0.2727273
v -224 -96 -0.2727273
v -240 -96 -0.2727273
v -240 -80 -0.2727273
v -224 -80 -0.2727273
v -240 -96 -0.2727273
v -256 -96 -0.2727273
v -256 -80 -0.2727273
v -240 -80 -0.2727273
v -256 -96 -0.2727273
v -272 -96 -0.2727273
v -272 -80 -0.2727273
v -256 -80 -0.2727273
v -304 -128 -0.3636364
v -320 -128 -0.3636364
v -320 -112 -0.3636364
v -304 -112 -0.3636364
v -320 -128 -0.3636364
v -336 -128 -0.3636364
v -336 -112 -0.3636364
v -320 -112 -0.3636364
v -304 -144 -0.4090909
v -320 -144 -0.4090909
v -320 -128 -0.4090909
v -304 -128 -0.4090909
v -320 -144 -0.4090909
v -336 -144 -0.4090909
v -336 -128 -0.4090909
v -320 -128 -0.4090909

# Texture cooridinates (Count = 24)
vt 0.03125 0.78125
vt 0.0625 0.78125
vt 0.0625 0.8125
vt 0.03125 0.8125
vt 0.09375 0.78125
vt 0.09375 0.8125
vt 0.125 0.78125
vt 0.125 0.8125
vt 0.15625 0.78125
vt 0.15625 0.8125
vt 0.03125 0.75
vt 0.0625 0.75
vt 0.09375 0.75
vt 0.125 0.75
vt 0.15625 0.75
vt 0 0.53125
vt 0.03125 0.53125
vt 0.03125 0.5625
vt 0 0.5625
vt 0.0625 0.53125
vt 0.0625 0.5625
vt 0 0.5
vt 0.03125 0.5
vt 0.0625 0.5

# Normal
vn 0 0 -1

# Mesh description
g Biome_1_Dungeon_Map_C1_mesh_0005

# Faces
f 1/1/1 2/2/1 3/3/1 4/4/1
f 5/2/1 6/5/1 7/6/1 8/3/1
f 9/5/1 10/7/1 11/8/1 12/6/1
f 13/7/1 14/9/1 15/10/1 16/8/1
f 17/1/1 18/2/1 19/3/1 20/4/1
f 21/2/1 22/5/1 23/6/1 24/3/1
f 25/1/1 26/2/1 27/3/1 28/4/1
f 29/2/1 30/5/1 31/6/1 32/3/1
f 33/5/1 34/7/1 35/8/1 36/6/1
f 37/7/1 38/9/1 39/10/1 40/8/1
f 41/11/1 42/12/1 43/2/1 44/1/1
f 45/12/1 46/13/1 47/5/1 48/2/1
f 49/13/1 50/14/1 51/7/1 52/5/1
f 53/14/1 54/15/1 55/9/1 56/7/1
f 57/11/1 58/12/1 59/2/1 60/1/1
f 61/12/1 62/13/1 63/5/1 64/2/1
f 65/11/1 66/12/1 67/2/1 68/1/1
f 69/12/1 70/13/1 71/5/1 72/2/1
f 73/13/1 74/14/1 75/7/1 76/5/1
f 77/14/1 78/15/1 79/9/1 80/7/1
f 81/16/1 82/17/1 83/18/1 84/19/1
f 85/17/1 86/20/1 87/21/1 88/18/1
f 89/22/1 90/23/1 91/17/1 92/16/1
f 93/23/1 94/24/1 95/20/1 96/17/1

