# Tiled2Unity generated file. Do not modify by hand.
# Wavefront file for 'Biome_1_Forest_Map_C1_mesh_0007.obj'

# Vertices (Count = 424)
v -32 -16 -0.04545455
v -48 -16 -0.04545455
v -48 0 -0.04545455
v -32 0 -0.04545455
v -224 -16 -0.04545455
v -240 -16 -0.04545455
v -240 0 -0.04545455
v -224 0 -0.04545455
v -240 -16 -0.04545455
v -256 -16 -0.04545455
v -256 0 -0.04545455
v -240 0 -0.04545455
v -256 -16 -0.04545455
v -272 -16 -0.04545455
v -272 0 -0.04545455
v -256 0 -0.04545455
v -384 -16 -0.04545455
v -400 -16 -0.04545455
v -400 0 -0.04545455
v -384 0 -0.04545455
v -400 -16 -0.04545455
v -416 -16 -0.04545455
v -416 0 -0.04545455
v -400 0 -0.04545455
v -416 -16 -0.04545455
v -432 -16 -0.04545455
v -432 0 -0.04545455
v -416 0 -0.04545455
v -480 -16 -0.04545455
v -496 -16 -0.04545455
v -496 0 -0.04545455
v -480 0 -0.04545455
v -496 -16 -0.04545455
v -512 -16 -0.04545455
v -512 0 -0.04545455
v -496 0 -0.04545455
v -512 -16 -0.04545455
v -528 -16 -0.04545455
v -528 0 -0.04545455
v -512 0 -0.04545455
v -608 -16 -0.04545455
v -624 -16 -0.04545455
v -624 0 -0.04545455
v -608 0 -0.04545455
v -624 -16 -0.04545455
v -640 -16 -0.04545455
v -640 0 -0.04545455
v -624 0 -0.04545455
v 0 -32 -0.09090909
v -16 -32 -0.09090909
v -16 -16 -0.09090909
v 0 -16 -0.09090909
v -144 -32 -0.09090909
v -160 -32 -0.09090909
v -160 -16 -0.09090909
v -144 -16 -0.09090909
v -272 -32 -0.09090909
v -288 -32 -0.09090909
v -288 -16 -0.09090909
v -272 -16 -0.09090909
v -288 -32 -0.09090909
v -304 -32 -0.09090909
v -304 -16 -0.09090909
v -288 -16 -0.09090909
v -432 -32 -0.09090909
v -448 -32 -0.09090909
v -448 -16 -0.09090909
v -432 -16 -0.09090909
v -448 -32 -0.09090909
v -464 -32 -0.09090909
v -464 -16 -0.09090909
v -448 -16 -0.09090909
v -464 -32 -0.09090909
v -480 -32 -0.09090909
v -480 -16 -0.09090909
v -464 -16 -0.09090909
v -608 -48 -0.1363636
v -624 -48 -0.1363636
v -624 -32 -0.1363636
v -608 -32 -0.1363636
v -624 -64 -0.1818182
v -640 -64 -0.1818182
v -640 -48 -0.1818182
v -624 -48 -0.1818182
v -624 -160 -0.4545455
v -640 -160 -0.4545455
v -640 -144 -0.4545455
v -624 -144 -0.4545455
v -624 -256 -0.7272727
v -640 -256 -0.7272727
v -640 -240 -0.7272727
v -624 -240 -0.7272727
v -32 -272 -0.7727273
v -48 -272 -0.7727273
v -48 -256 -0.7727273
v -32 -256 -0.7727273
v -48 -272 -0.7727273
v -64 -272 -0.7727273
v -64 -256 -0.7727273
v -48 -256 -0.7727273
v -144 -272 -0.7727273
v -160 -272 -0.7727273
v -160 -256 -0.7727273
v -144 -256 -0.7727273
v -160 -272 -0.7727273
v -176 -272 -0.7727273
v -176 -256 -0.7727273
v -160 -256 -0.7727273
v -176 -272 -0.7727273
v -192 -272 -0.7727273
v -192 -256 -0.7727273
v -176 -256 -0.7727273
v -464 -272 -0.7727273
v -480 -272 -0.7727273
v -480 -256 -0.7727273
v -464 -256 -0.7727273
v -16 -288 -0.8181818
v -32 -288 -0.8181818
v -32 -272 -0.8181818
v -16 -272 -0.8181818
v -32 -288 -0.8181818
v -48 -288 -0.8181818
v -48 -272 -0.8181818
v -32 -272 -0.8181818
v -48 -288 -0.8181818
v -64 -288 -0.8181818
v -64 -272 -0.8181818
v -48 -272 -0.8181818
v -64 -288 -0.8181818
v -80 -288 -0.8181818
v -80 -272 -0.8181818
v -64 -272 -0.8181818
v -128 -288 -0.8181818
v -144 -288 -0.8181818
v -144 -272 -0.8181818
v -128 -272 -0.8181818
v -144 -288 -0.8181818
v -160 -288 -0.8181818
v -160 -272 -0.8181818
v -144 -272 -0.8181818
v -160 -288 -0.8181818
v -176 -288 -0.8181818
v -176 -272 -0.8181818
v -160 -272 -0.8181818
v -176 -288 -0.8181818
v -192 -288 -0.8181818
v -192 -272 -0.8181818
v -176 -272 -0.8181818
v -224 -288 -0.8181818
v -240 -288 -0.8181818
v -240 -272 -0.8181818
v -224 -272 -0.8181818
v -240 -288 -0.8181818
v -256 -288 -0.8181818
v -256 -272 -0.8181818
v -240 -272 -0.8181818
v -256 -288 -0.8181818
v -272 -288 -0.8181818
v -272 -272 -0.8181818
v -256 -272 -0.8181818
v -336 -288 -0.8181818
v -352 -288 -0.8181818
v -352 -272 -0.8181818
v -336 -272 -0.8181818
v -448 -288 -0.8181818
v -464 -288 -0.8181818
v -464 -272 -0.8181818
v -448 -272 -0.8181818
v -464 -288 -0.8181818
v -480 -288 -0.8181818
v -480 -272 -0.8181818
v -464 -272 -0.8181818
v -480 -288 -0.8181818
v -496 -288 -0.8181818
v -496 -272 -0.8181818
v -480 -272 -0.8181818
v 0 -304 -0.8636364
v -16 -304 -0.8636364
v -16 -288 -0.8636364
v 0 -288 -0.8636364
v -16 -304 -0.8636364
v -32 -304 -0.8636364
v -32 -288 -0.8636364
v -16 -288 -0.8636364
v -32 -304 -0.8636364
v -48 -304 -0.8636364
v -48 -288 -0.8636364
v -32 -288 -0.8636364
v -48 -304 -0.8636364
v -64 -304 -0.8636364
v -64 -288 -0.8636364
v -48 -288 -0.8636364
v -64 -304 -0.8636364
v -80 -304 -0.8636364
v -80 -288 -0.8636364
v -64 -288 -0.8636364
v -80 -304 -0.8636364
v -96 -304 -0.8636364
v -96 -288 -0.8636364
v -80 -288 -0.8636364
v -96 -304 -0.8636364
v -112 -304 -0.8636364
v -112 -288 -0.8636364
v -96 -288 -0.8636364
v -112 -304 -0.8636364
v -128 -304 -0.8636364
v -128 -288 -0.8636364
v -112 -288 -0.8636364
v -128 -304 -0.8636364
v -144 -304 -0.8636364
v -144 -288 -0.8636364
v -128 -288 -0.8636364
v -144 -304 -0.8636364
v -160 -304 -0.8636364
v -160 -288 -0.8636364
v -144 -288 -0.8636364
v -160 -304 -0.8636364
v -176 -304 -0.8636364
v -176 -288 -0.8636364
v -160 -288 -0.8636364
v -176 -304 -0.8636364
v -192 -304 -0.8636364
v -192 -288 -0.8636364
v -176 -288 -0.8636364
v -192 -304 -0.8636364
v -208 -304 -0.8636364
v -208 -288 -0.8636364
v -192 -288 -0.8636364
v -208 -304 -0.8636364
v -224 -304 -0.8636364
v -224 -288 -0.8636364
v -208 -288 -0.8636364
v -224 -304 -0.8636364
v -240 -304 -0.8636364
v -240 -288 -0.8636364
v -224 -288 -0.8636364
v -240 -304 -0.8636364
v -256 -304 -0.8636364
v -256 -288 -0.8636364
v -240 -288 -0.8636364
v -256 -304 -0.8636364
v -272 -304 -0.8636364
v -272 -288 -0.8636364
v -256 -288 -0.8636364
v -272 -304 -0.8636364
v -288 -304 -0.8636364
v -288 -288 -0.8636364
v -272 -288 -0.8636364
v -288 -304 -0.8636364
v -304 -304 -0.8636364
v -304 -288 -0.8636364
v -288 -288 -0.8636364
v -304 -304 -0.8636364
v -320 -304 -0.8636364
v -320 -288 -0.8636364
v -304 -288 -0.8636364
v -320 -304 -0.8636364
v -336 -304 -0.8636364
v -336 -288 -0.8636364
v -320 -288 -0.8636364
v -336 -304 -0.8636364
v -352 -304 -0.8636364
v -352 -288 -0.8636364
v -336 -288 -0.8636364
v -352 -304 -0.8636364
v -368 -304 -0.8636364
v -368 -288 -0.8636364
v -352 -288 -0.8636364
v -368 -304 -0.8636364
v -384 -304 -0.8636364
v -384 -288 -0.8636364
v -368 -288 -0.8636364
v -384 -304 -0.8636364
v -400 -304 -0.8636364
v -400 -288 -0.8636364
v -384 -288 -0.8636364
v -400 -304 -0.8636364
v -416 -304 -0.8636364
v -416 -288 -0.8636364
v -400 -288 -0.8636364
v -416 -304 -0.8636364
v -432 -304 -0.8636364
v -432 -288 -0.8636364
v -416 -288 -0.8636364
v -432 -304 -0.8636364
v -448 -304 -0.8636364
v -448 -288 -0.8636364
v -432 -288 -0.8636364
v -448 -304 -0.8636364
v -464 -304 -0.8636364
v -464 -288 -0.8636364
v -448 -288 -0.8636364
v -464 -304 -0.8636364
v -480 -304 -0.8636364
v -480 -288 -0.8636364
v -464 -288 -0.8636364
v -480 -304 -0.8636364
v -496 -304 -0.8636364
v -496 -288 -0.8636364
v -480 -288 -0.8636364
v -496 -304 -0.8636364
v -512 -304 -0.8636364
v -512 -288 -0.8636364
v -496 -288 -0.8636364
v -512 -304 -0.8636364
v -528 -304 -0.8636364
v -528 -288 -0.8636364
v -512 -288 -0.8636364
v -528 -304 -0.8636364
v -544 -304 -0.8636364
v -544 -288 -0.8636364
v -528 -288 -0.8636364
v -544 -304 -0.8636364
v -560 -304 -0.8636364
v -560 -288 -0.8636364
v -544 -288 -0.8636364
v -560 -304 -0.8636364
v -576 -304 -0.8636364
v -576 -288 -0.8636364
v -560 -288 -0.8636364
v -576 -304 -0.8636364
v -592 -304 -0.8636364
v -592 -288 -0.8636364
v -576 -288 -0.8636364
v -592 -304 -0.8636364
v -608 -304 -0.8636364
v -608 -288 -0.8636364
v -592 -288 -0.8636364
v -608 -304 -0.8636364
v -624 -304 -0.8636364
v -624 -288 -0.8636364
v -608 -288 -0.8636364
v -624 -304 -0.8636364
v -640 -304 -0.8636364
v -640 -288 -0.8636364
v -624 -288 -0.8636364
v -16 -320 -0.9090909
v -32 -320 -0.9090909
v -32 -304 -0.9090909
v -16 -304 -0.9090909
v -32 -320 -0.9090909
v -48 -320 -0.9090909
v -48 -304 -0.9090909
v -32 -304 -0.9090909
v -48 -320 -0.9090909
v -64 -320 -0.9090909
v -64 -304 -0.9090909
v -48 -304 -0.9090909
v -64 -320 -0.9090909
v -80 -320 -0.9090909
v -80 -304 -0.9090909
v -64 -304 -0.9090909
v -176 -320 -0.9090909
v -192 -320 -0.9090909
v -192 -304 -0.9090909
v -176 -304 -0.9090909
v -272 -320 -0.9090909
v -288 -320 -0.9090909
v -288 -304 -0.9090909
v -272 -304 -0.9090909
v -352 -320 -0.9090909
v -368 -320 -0.9090909
v -368 -304 -0.9090909
v -352 -304 -0.9090909
v -368 -320 -0.9090909
v -384 -320 -0.9090909
v -384 -304 -0.9090909
v -368 -304 -0.9090909
v -384 -320 -0.9090909
v -400 -320 -0.9090909
v -400 -304 -0.9090909
v -384 -304 -0.9090909
v -400 -320 -0.9090909
v -416 -320 -0.9090909
v -416 -304 -0.9090909
v -400 -304 -0.9090909
v -464 -320 -0.9090909
v -480 -320 -0.9090909
v -480 -304 -0.9090909
v -464 -304 -0.9090909
v -480 -320 -0.9090909
v -496 -320 -0.9090909
v -496 -304 -0.9090909
v -480 -304 -0.9090909
v -496 -320 -0.9090909
v -512 -320 -0.9090909
v -512 -304 -0.9090909
v -496 -304 -0.9090909
v -592 -320 -0.9090909
v -608 -320 -0.9090909
v -608 -304 -0.9090909
v -592 -304 -0.9090909
v -608 -320 -0.9090909
v -624 -320 -0.9090909
v -624 -304 -0.9090909
v -608 -304 -0.9090909
v -128 -336 -0.9545454
v -144 -336 -0.9545454
v -144 -320 -0.9545454
v -128 -320 -0.9545454
v -256 -336 -0.9545454
v -272 -336 -0.9545454
v -272 -320 -0.9545454
v -256 -320 -0.9545454
v -272 -336 -0.9545454
v -288 -336 -0.9545454
v -288 -320 -0.9545454
v -272 -320 -0.9545454
v -288 -336 -0.9545454
v -304 -336 -0.9545454
v -304 -320 -0.9545454
v -288 -320 -0.9545454
v -416 -336 -0.9545454
v -432 -336 -0.9545454
v -432 -320 -0.9545454
v -416 -320 -0.9545454
v -432 -336 -0.9545454
v -448 -336 -0.9545454
v -448 -320 -0.9545454
v -432 -320 -0.9545454
v -448 -336 -0.9545454
v -464 -336 -0.9545454
v -464 -320 -0.9545454
v -448 -320 -0.9545454

# Texture cooridinates (Count = 16)
vt 0.1875 0.59375
vt 0.21875 0.59375
vt 0.21875 0.625
vt 0.1875 0.625
vt 0.15625 0.59375
vt 0.15625 0.625
vt 0.25 0.59375
vt 0.25 0.625
vt 0.15625 0.65625
vt 0.1875 0.65625
vt 0.1875 0.6875
vt 0.15625 0.6875
vt 0.21875 0.65625
vt 0.25 0.65625
vt 0.25 0.6875
vt 0.21875 0.6875

# Normal
vn 0 0 -1

# Mesh description
g Biome_1_Forest_Map_C1_mesh_0007

# Faces
f 1/1/1 2/2/1 3/3/1 4/4/1
f 5/5/1 6/1/1 7/4/1 8/6/1
f 9/1/1 10/2/1 11/3/1 12/4/1
f 13/2/1 14/7/1 15/8/1 16/3/1
f 17/5/1 18/1/1 19/4/1 20/6/1
f 21/1/1 22/2/1 23/3/1 24/4/1
f 25/2/1 26/7/1 27/8/1 28/3/1
f 29/5/1 30/1/1 31/4/1 32/6/1
f 33/1/1 34/2/1 35/3/1 36/4/1
f 37/2/1 38/7/1 39/8/1 40/3/1
f 41/5/1 42/1/1 43/4/1 44/6/1
f 45/2/1 46/7/1 47/8/1 48/3/1
f 49/1/1 50/2/1 51/3/1 52/4/1
f 53/1/1 54/2/1 55/3/1 56/4/1
f 57/5/1 58/1/1 59/4/1 60/6/1
f 61/1/1 62/2/1 63/3/1 64/4/1
f 65/5/1 66/1/1 67/4/1 68/6/1
f 69/1/1 70/2/1 71/3/1 72/4/1
f 73/2/1 74/7/1 75/8/1 76/3/1
f 77/5/1 78/1/1 79/4/1 80/6/1
f 81/2/1 82/7/1 83/8/1 84/3/1
f 85/5/1 86/1/1 87/4/1 88/6/1
f 89/2/1 90/7/1 91/8/1 92/3/1
f 93/9/1 94/10/1 95/11/1 96/12/1
f 97/13/1 98/14/1 99/15/1 100/16/1
f 101/9/1 102/10/1 103/11/1 104/12/1
f 105/10/1 106/13/1 107/16/1 108/11/1
f 109/13/1 110/14/1 111/15/1 112/16/1
f 113/9/1 114/10/1 115/11/1 116/12/1
f 117/2/1 118/7/1 119/8/1 120/3/1
f 121/5/1 122/1/1 123/4/1 124/6/1
f 125/1/1 126/2/1 127/3/1 128/4/1
f 129/10/1 130/13/1 131/16/1 132/11/1
f 133/10/1 134/13/1 135/16/1 136/11/1
f 137/5/1 138/1/1 139/4/1 140/6/1
f 141/1/1 142/2/1 143/3/1 144/4/1
f 145/3/1 146/8/1 147/14/1 148/13/1
f 149/9/1 150/10/1 151/11/1 152/12/1
f 153/10/1 154/13/1 155/16/1 156/11/1
f 157/13/1 158/14/1 159/15/1 160/16/1
f 161/10/1 162/13/1 163/16/1 164/11/1
f 165/9/1 166/10/1 167/11/1 168/12/1
f 169/4/1 170/3/1 171/13/1 172/10/1
f 173/13/1 174/14/1 175/15/1 176/16/1
f 177/2/1 178/7/1 179/8/1 180/3/1
f 181/4/1 182/3/1 183/13/1 184/10/1
f 185/4/1 186/3/1 187/13/1 188/10/1
f 189/4/1 190/3/1 191/13/1 192/10/1
f 193/4/1 194/3/1 195/13/1 196/10/1
f 197/10/1 198/13/1 199/16/1 200/11/1
f 201/10/1 202/13/1 203/16/1 204/11/1
f 205/10/1 206/13/1 207/16/1 208/11/1
f 209/4/1 210/3/1 211/13/1 212/10/1
f 213/6/1 214/4/1 215/10/1 216/9/1
f 217/4/1 218/3/1 219/13/1 220/10/1
f 221/3/1 222/8/1 223/14/1 224/13/1
f 225/10/1 226/13/1 227/16/1 228/11/1
f 229/10/1 230/13/1 231/16/1 232/11/1
f 233/5/1 234/1/1 235/4/1 236/6/1
f 237/1/1 238/2/1 239/3/1 240/4/1
f 241/2/1 242/7/1 243/8/1 244/3/1
f 245/10/1 246/13/1 247/16/1 248/11/1
f 249/10/1 250/13/1 251/16/1 252/11/1
f 253/10/1 254/13/1 255/16/1 256/11/1
f 257/10/1 258/13/1 259/16/1 260/11/1
f 261/4/1 262/3/1 263/13/1 264/10/1
f 265/10/1 266/13/1 267/16/1 268/11/1
f 269/10/1 270/13/1 271/16/1 272/11/1
f 273/10/1 274/13/1 275/16/1 276/11/1
f 277/10/1 278/13/1 279/16/1 280/11/1
f 281/10/1 282/13/1 283/16/1 284/11/1
f 285/10/1 286/13/1 287/16/1 288/11/1
f 289/6/1 290/4/1 291/10/1 292/9/1
f 293/4/1 294/3/1 295/13/1 296/10/1
f 297/3/1 298/8/1 299/14/1 300/13/1
f 301/10/1 302/13/1 303/16/1 304/11/1
f 305/10/1 306/13/1 307/16/1 308/11/1
f 309/10/1 310/13/1 311/16/1 312/11/1
f 313/10/1 314/13/1 315/16/1 316/11/1
f 317/5/1 318/1/1 319/4/1 320/6/1
f 321/1/1 322/2/1 323/3/1 324/4/1
f 325/10/1 326/13/1 327/16/1 328/11/1
f 329/10/1 330/13/1 331/16/1 332/11/1
f 333/2/1 334/7/1 335/8/1 336/3/1
f 337/1/1 338/2/1 339/3/1 340/4/1
f 341/5/1 342/1/1 343/4/1 344/6/1
f 345/1/1 346/2/1 347/3/1 348/4/1
f 349/2/1 350/7/1 351/8/1 352/3/1
f 353/4/1 354/3/1 355/13/1 356/10/1
f 357/4/1 358/3/1 359/13/1 360/10/1
f 361/4/1 362/3/1 363/13/1 364/10/1
f 365/5/1 366/1/1 367/4/1 368/6/1
f 369/1/1 370/2/1 371/3/1 372/4/1
f 373/2/1 374/7/1 375/8/1 376/3/1
f 377/5/1 378/1/1 379/4/1 380/6/1
f 381/1/1 382/2/1 383/3/1 384/4/1
f 385/2/1 386/7/1 387/8/1 388/3/1
f 389/5/1 390/1/1 391/4/1 392/6/1
f 393/2/1 394/7/1 395/8/1 396/3/1
f 397/1/1 398/2/1 399/3/1 400/4/1
f 401/5/1 402/1/1 403/4/1 404/6/1
f 405/1/1 406/2/1 407/3/1 408/4/1
f 409/2/1 410/7/1 411/8/1 412/3/1
f 413/5/1 414/1/1 415/4/1 416/6/1
f 417/1/1 418/2/1 419/3/1 420/4/1
f 421/2/1 422/7/1 423/8/1 424/3/1

