# Tiled2Unity generated file. Do not modify by hand.
# Wavefront file for 'Biome_1_Dungeon_Map_B2_mesh_0002.obj'

# Vertices (Count = 208)
v -48 -64 -0.1818182
v -64 -64 -0.1818182
v -64 -48 -0.1818182
v -48 -48 -0.1818182
v -64 -64 -0.1818182
v -80 -64 -0.1818182
v -80 -48 -0.1818182
v -64 -48 -0.1818182
v -560 -64 -0.1818182
v -576 -64 -0.1818182
v -576 -48 -0.1818182
v -560 -48 -0.1818182
v -576 -64 -0.1818182
v -592 -64 -0.1818182
v -592 -48 -0.1818182
v -576 -48 -0.1818182
v -48 -80 -0.2272727
v -64 -80 -0.2272727
v -64 -64 -0.2272727
v -48 -64 -0.2272727
v -64 -80 -0.2272727
v -80 -80 -0.2272727
v -80 -64 -0.2272727
v -64 -64 -0.2272727
v -560 -80 -0.2272727
v -576 -80 -0.2272727
v -576 -64 -0.2272727
v -560 -64 -0.2272727
v -576 -80 -0.2272727
v -592 -80 -0.2272727
v -592 -64 -0.2272727
v -576 -64 -0.2272727
v -80 -96 -0.2727273
v -96 -96 -0.2727273
v -96 -80 -0.2727273
v -80 -80 -0.2727273
v -544 -96 -0.2727273
v -560 -96 -0.2727273
v -560 -80 -0.2727273
v -544 -80 -0.2727273
v -96 -112 -0.3181818
v -112 -112 -0.3181818
v -112 -96 -0.3181818
v -96 -96 -0.3181818
v -304 -112 -0.3181818
v -320 -112 -0.3181818
v -320 -96 -0.3181818
v -304 -96 -0.3181818
v -320 -112 -0.3181818
v -336 -112 -0.3181818
v -336 -96 -0.3181818
v -320 -96 -0.3181818
v -528 -112 -0.3181818
v -544 -112 -0.3181818
v -544 -96 -0.3181818
v -528 -96 -0.3181818
v -112 -128 -0.3636364
v -128 -128 -0.3636364
v -128 -112 -0.3636364
v -112 -112 -0.3636364
v -304 -128 -0.3636364
v -320 -128 -0.3636364
v -320 -112 -0.3636364
v -304 -112 -0.3636364
v -320 -128 -0.3636364
v -336 -128 -0.3636364
v -336 -112 -0.3636364
v -320 -112 -0.3636364
v -512 -128 -0.3636364
v -528 -128 -0.3636364
v -528 -112 -0.3636364
v -512 -112 -0.3636364
v -240 -144 -0.4090909
v -256 -144 -0.4090909
v -256 -128 -0.4090909
v -240 -128 -0.4090909
v -256 -144 -0.4090909
v -272 -144 -0.4090909
v -272 -128 -0.4090909
v -256 -128 -0.4090909
v -368 -144 -0.4090909
v -384 -144 -0.4090909
v -384 -128 -0.4090909
v -368 -128 -0.4090909
v -384 -144 -0.4090909
v -400 -144 -0.4090909
v -400 -128 -0.4090909
v -384 -128 -0.4090909
v -240 -160 -0.4545455
v -256 -160 -0.4545455
v -256 -144 -0.4545455
v -240 -144 -0.4545455
v -256 -160 -0.4545455
v -272 -160 -0.4545455
v -272 -144 -0.4545455
v -256 -144 -0.4545455
v -368 -160 -0.4545455
v -384 -160 -0.4545455
v -384 -144 -0.4545455
v -368 -144 -0.4545455
v -384 -160 -0.4545455
v -400 -160 -0.4545455
v -400 -144 -0.4545455
v -384 -144 -0.4545455
v -240 -208 -0.5909091
v -256 -208 -0.5909091
v -256 -192 -0.5909091
v -240 -192 -0.5909091
v -256 -208 -0.5909091
v -272 -208 -0.5909091
v -272 -192 -0.5909091
v -256 -192 -0.5909091
v -368 -208 -0.5909091
v -384 -208 -0.5909091
v -384 -192 -0.5909091
v -368 -192 -0.5909091
v -384 -208 -0.5909091
v -400 -208 -0.5909091
v -400 -192 -0.5909091
v -384 -192 -0.5909091
v -240 -224 -0.6363636
v -256 -224 -0.6363636
v -256 -208 -0.6363636
v -240 -208 -0.6363636
v -256 -224 -0.6363636
v -272 -224 -0.6363636
v -272 -208 -0.6363636
v -256 -208 -0.6363636
v -368 -224 -0.6363636
v -384 -224 -0.6363636
v -384 -208 -0.6363636
v -368 -208 -0.6363636
v -384 -224 -0.6363636
v -400 -224 -0.6363636
v -400 -208 -0.6363636
v -384 -208 -0.6363636
v -112 -240 -0.6818182
v -128 -240 -0.6818182
v -128 -224 -0.6818182
v -112 -224 -0.6818182
v -304 -240 -0.6818182
v -320 -240 -0.6818182
v -320 -224 -0.6818182
v -304 -224 -0.6818182
v -320 -240 -0.6818182
v -336 -240 -0.6818182
v -336 -224 -0.6818182
v -320 -224 -0.6818182
v -512 -240 -0.6818182
v -528 -240 -0.6818182
v -528 -224 -0.6818182
v -512 -224 -0.6818182
v -96 -256 -0.7272727
v -112 -256 -0.7272727
v -112 -240 -0.7272727
v -96 -240 -0.7272727
v -304 -256 -0.7272727
v -320 -256 -0.7272727
v -320 -240 -0.7272727
v -304 -240 -0.7272727
v -320 -256 -0.7272727
v -336 -256 -0.7272727
v -336 -240 -0.7272727
v -320 -240 -0.7272727
v -528 -256 -0.7272727
v -544 -256 -0.7272727
v -544 -240 -0.7272727
v -528 -240 -0.7272727
v -80 -272 -0.7727273
v -96 -272 -0.7727273
v -96 -256 -0.7727273
v -80 -256 -0.7727273
v -544 -272 -0.7727273
v -560 -272 -0.7727273
v -560 -256 -0.7727273
v -544 -256 -0.7727273
v -48 -288 -0.8181818
v -64 -288 -0.8181818
v -64 -272 -0.8181818
v -48 -272 -0.8181818
v -64 -288 -0.8181818
v -80 -288 -0.8181818
v -80 -272 -0.8181818
v -64 -272 -0.8181818
v -560 -288 -0.8181818
v -576 -288 -0.8181818
v -576 -272 -0.8181818
v -560 -272 -0.8181818
v -576 -288 -0.8181818
v -592 -288 -0.8181818
v -592 -272 -0.8181818
v -576 -272 -0.8181818
v -48 -304 -0.8636364
v -64 -304 -0.8636364
v -64 -288 -0.8636364
v -48 -288 -0.8636364
v -64 -304 -0.8636364
v -80 -304 -0.8636364
v -80 -288 -0.8636364
v -64 -288 -0.8636364
v -560 -304 -0.8636364
v -576 -304 -0.8636364
v -576 -288 -0.8636364
v -560 -288 -0.8636364
v -576 -304 -0.8636364
v -592 -304 -0.8636364
v -592 -288 -0.8636364
v -576 -288 -0.8636364

# Texture cooridinates (Count = 11)
vt 0.125 0.6875
vt 0.15625 0.6875
vt 0.15625 0.71875
vt 0.125 0.71875
vt 0.1875 0.6875
vt 0.1875 0.71875
vt 0.125 0.65625
vt 0.15625 0.65625
vt 0.1875 0.65625
vt 0.1875 0.75
vt 0.15625 0.75

# Normal
vn 0 0 -1

# Mesh description
g Biome_1_Dungeon_Map_B2_mesh_0002

# Faces
f 1/1/1 2/2/1 3/3/1 4/4/1
f 5/2/1 6/5/1 7/6/1 8/3/1
f 9/1/1 10/2/1 11/3/1 12/4/1
f 13/2/1 14/5/1 15/6/1 16/3/1
f 17/7/1 18/8/1 19/2/1 20/1/1
f 21/8/1 22/9/1 23/5/1 24/2/1
f 25/7/1 26/8/1 27/2/1 28/1/1
f 29/8/1 30/9/1 31/5/1 32/2/1
f 33/3/1 34/6/1 35/10/1 36/11/1
f 37/3/1 38/6/1 39/10/1 40/11/1
f 41/3/1 42/6/1 43/10/1 44/11/1
f 45/1/1 46/2/1 47/3/1 48/4/1
f 49/2/1 50/5/1 51/6/1 52/3/1
f 53/3/1 54/6/1 55/10/1 56/11/1
f 57/3/1 58/6/1 59/10/1 60/11/1
f 61/7/1 62/8/1 63/2/1 64/1/1
f 65/8/1 66/9/1 67/5/1 68/2/1
f 69/3/1 70/6/1 71/10/1 72/11/1
f 73/1/1 74/2/1 75/3/1 76/4/1
f 77/2/1 78/5/1 79/6/1 80/3/1
f 81/1/1 82/2/1 83/3/1 84/4/1
f 85/2/1 86/5/1 87/6/1 88/3/1
f 89/7/1 90/8/1 91/2/1 92/1/1
f 93/8/1 94/9/1 95/5/1 96/2/1
f 97/7/1 98/8/1 99/2/1 100/1/1
f 101/8/1 102/9/1 103/5/1 104/2/1
f 105/1/1 106/2/1 107/3/1 108/4/1
f 109/2/1 110/5/1 111/6/1 112/3/1
f 113/1/1 114/2/1 115/3/1 116/4/1
f 117/2/1 118/5/1 119/6/1 120/3/1
f 121/7/1 122/8/1 123/2/1 124/1/1
f 125/8/1 126/9/1 127/5/1 128/2/1
f 129/7/1 130/8/1 131/2/1 132/1/1
f 133/8/1 134/9/1 135/5/1 136/2/1
f 137/3/1 138/6/1 139/10/1 140/11/1
f 141/1/1 142/2/1 143/3/1 144/4/1
f 145/2/1 146/5/1 147/6/1 148/3/1
f 149/3/1 150/6/1 151/10/1 152/11/1
f 153/3/1 154/6/1 155/10/1 156/11/1
f 157/7/1 158/8/1 159/2/1 160/1/1
f 161/8/1 162/9/1 163/5/1 164/2/1
f 165/3/1 166/6/1 167/10/1 168/11/1
f 169/3/1 170/6/1 171/10/1 172/11/1
f 173/3/1 174/6/1 175/10/1 176/11/1
f 177/1/1 178/2/1 179/3/1 180/4/1
f 181/2/1 182/5/1 183/6/1 184/3/1
f 185/1/1 186/2/1 187/3/1 188/4/1
f 189/2/1 190/5/1 191/6/1 192/3/1
f 193/7/1 194/8/1 195/2/1 196/1/1
f 197/8/1 198/9/1 199/5/1 200/2/1
f 201/7/1 202/8/1 203/2/1 204/1/1
f 205/8/1 206/9/1 207/5/1 208/2/1

