# Tiled2Unity generated file. Do not modify by hand.
# Wavefront file for 'Biome_1_Dungeon_Map_B2_mesh_0003.obj'

# Vertices (Count = 64)
v -128 -144 -0.4090909
v -144 -144 -0.4090909
v -144 -128 -0.4090909
v -128 -128 -0.4090909
v -144 -144 -0.4090909
v -160 -144 -0.4090909
v -160 -128 -0.4090909
v -144 -128 -0.4090909
v -480 -144 -0.4090909
v -496 -144 -0.4090909
v -496 -128 -0.4090909
v -480 -128 -0.4090909
v -496 -144 -0.4090909
v -512 -144 -0.4090909
v -512 -128 -0.4090909
v -496 -128 -0.4090909
v -128 -160 -0.4545455
v -144 -160 -0.4545455
v -144 -144 -0.4545455
v -128 -144 -0.4545455
v -144 -160 -0.4545455
v -160 -160 -0.4545455
v -160 -144 -0.4545455
v -144 -144 -0.4545455
v -480 -160 -0.4545455
v -496 -160 -0.4545455
v -496 -144 -0.4545455
v -480 -144 -0.4545455
v -496 -160 -0.4545455
v -512 -160 -0.4545455
v -512 -144 -0.4545455
v -496 -144 -0.4545455
v -128 -208 -0.5909091
v -144 -208 -0.5909091
v -144 -192 -0.5909091
v -128 -192 -0.5909091
v -144 -208 -0.5909091
v -160 -208 -0.5909091
v -160 -192 -0.5909091
v -144 -192 -0.5909091
v -480 -208 -0.5909091
v -496 -208 -0.5909091
v -496 -192 -0.5909091
v -480 -192 -0.5909091
v -496 -208 -0.5909091
v -512 -208 -0.5909091
v -512 -192 -0.5909091
v -496 -192 -0.5909091
v -128 -224 -0.6363636
v -144 -224 -0.6363636
v -144 -208 -0.6363636
v -128 -208 -0.6363636
v -144 -224 -0.6363636
v -160 -224 -0.6363636
v -160 -208 -0.6363636
v -144 -208 -0.6363636
v -480 -224 -0.6363636
v -496 -224 -0.6363636
v -496 -208 -0.6363636
v -480 -208 -0.6363636
v -496 -224 -0.6363636
v -512 -224 -0.6363636
v -512 -208 -0.6363636
v -496 -208 -0.6363636

# Texture cooridinates (Count = 15)
vt 0.03125 0.78125
vt 0.0625 0.78125
vt 0.0625 0.8125
vt 0.03125 0.8125
vt 0.09375 0.78125
vt 0.09375 0.8125
vt 0.125 0.78125
vt 0.125 0.8125
vt 0.15625 0.78125
vt 0.15625 0.8125
vt 0.03125 0.75
vt 0.0625 0.75
vt 0.09375 0.75
vt 0.125 0.75
vt 0.15625 0.75

# Normal
vn 0 0 -1

# Mesh description
g Biome_1_Dungeon_Map_B2_mesh_0003

# Faces
f 1/1/1 2/2/1 3/3/1 4/4/1
f 5/2/1 6/5/1 7/6/1 8/3/1
f 9/5/1 10/7/1 11/8/1 12/6/1
f 13/7/1 14/9/1 15/10/1 16/8/1
f 17/11/1 18/12/1 19/2/1 20/1/1
f 21/12/1 22/13/1 23/5/1 24/2/1
f 25/13/1 26/14/1 27/7/1 28/5/1
f 29/14/1 30/15/1 31/9/1 32/7/1
f 33/5/1 34/7/1 35/8/1 36/6/1
f 37/7/1 38/9/1 39/10/1 40/8/1
f 41/1/1 42/2/1 43/3/1 44/4/1
f 45/2/1 46/5/1 47/6/1 48/3/1
f 49/13/1 50/14/1 51/7/1 52/5/1
f 53/14/1 54/15/1 55/9/1 56/7/1
f 57/11/1 58/12/1 59/2/1 60/1/1
f 61/12/1 62/13/1 63/5/1 64/2/1

