# Tiled2Unity generated file. Do not modify by hand.
# Wavefront file for 'Biome_1_Dungeon_Map_B2_mesh_0005.obj'

# Vertices (Count = 76)
v -32 -224 -0.6363636
v -48 -224 -0.6363636
v -48 -208 -0.6363636
v -32 -208 -0.6363636
v -272 -320 -0.9090909
v -288 -320 -0.9090909
v -288 -304 -0.9090909
v -272 -304 -0.9090909
v -288 -320 -0.9090909
v -304 -320 -0.9090909
v -304 -304 -0.9090909
v -288 -304 -0.9090909
v -304 -320 -0.9090909
v -320 -320 -0.9090909
v -320 -304 -0.9090909
v -304 -304 -0.9090909
v -320 -320 -0.9090909
v -336 -320 -0.9090909
v -336 -304 -0.9090909
v -320 -304 -0.9090909
v -336 -320 -0.9090909
v -352 -320 -0.9090909
v -352 -304 -0.9090909
v -336 -304 -0.9090909
v -352 -320 -0.9090909
v -368 -320 -0.9090909
v -368 -304 -0.9090909
v -352 -304 -0.9090909
v -272 -336 -0.9545454
v -288 -336 -0.9545454
v -288 -320 -0.9545454
v -272 -320 -0.9545454
v -288 -336 -0.9545454
v -304 -336 -0.9545454
v -304 -320 -0.9545454
v -288 -320 -0.9545454
v -304 -336 -0.9545454
v -320 -336 -0.9545454
v -320 -320 -0.9545454
v -304 -320 -0.9545454
v -320 -336 -0.9545454
v -336 -336 -0.9545454
v -336 -320 -0.9545454
v -320 -320 -0.9545454
v -336 -336 -0.9545454
v -352 -336 -0.9545454
v -352 -320 -0.9545454
v -336 -320 -0.9545454
v -352 -336 -0.9545454
v -368 -336 -0.9545454
v -368 -320 -0.9545454
v -352 -320 -0.9545454
v -272 -352 -1
v -288 -352 -1
v -288 -336 -1
v -272 -336 -1
v -288 -352 -1
v -304 -352 -1
v -304 -336 -1
v -288 -336 -1
v -304 -352 -1
v -320 -352 -1
v -320 -336 -1
v -304 -336 -1
v -320 -352 -1
v -336 -352 -1
v -336 -336 -1
v -320 -336 -1
v -336 -352 -1
v -352 -352 -1
v -352 -336 -1
v -336 -336 -1
v -352 -352 -1
v -368 -352 -1
v -368 -336 -1
v -352 -336 -1

# Texture cooridinates (Count = 32)
vt 0.15625 0.8125
vt 0.1875 0.8125
vt 0.1875 0.84375
vt 0.15625 0.84375
vt 0.3125 0.96875
vt 0.34375 0.96875
vt 0.34375 1
vt 0.3125 1
vt 0.375 0.96875
vt 0.375 1
vt 0.40625 0.96875
vt 0.40625 1
vt 0.4375 0.96875
vt 0.4375 1
vt 0.46875 0.96875
vt 0.46875 1
vt 0.5 0.96875
vt 0.5 1
vt 0.3125 0.9375
vt 0.34375 0.9375
vt 0.375 0.9375
vt 0.40625 0.9375
vt 0.4375 0.9375
vt 0.46875 0.9375
vt 0.5 0.9375
vt 0.3125 0.90625
vt 0.34375 0.90625
vt 0.375 0.90625
vt 0.40625 0.90625
vt 0.4375 0.90625
vt 0.46875 0.90625
vt 0.5 0.90625

# Normal
vn 0 0 -1

# Mesh description
g Biome_1_Dungeon_Map_B2_mesh_0005

# Faces
f 1/1/1 2/2/1 3/3/1 4/4/1
f 5/5/1 6/6/1 7/7/1 8/8/1
f 9/6/1 10/9/1 11/10/1 12/7/1
f 13/9/1 14/11/1 15/12/1 16/10/1
f 17/11/1 18/13/1 19/14/1 20/12/1
f 21/13/1 22/15/1 23/16/1 24/14/1
f 25/15/1 26/17/1 27/18/1 28/16/1
f 29/19/1 30/20/1 31/6/1 32/5/1
f 33/20/1 34/21/1 35/9/1 36/6/1
f 37/21/1 38/22/1 39/11/1 40/9/1
f 41/22/1 42/23/1 43/13/1 44/11/1
f 45/23/1 46/24/1 47/15/1 48/13/1
f 49/24/1 50/25/1 51/17/1 52/15/1
f 53/26/1 54/27/1 55/20/1 56/19/1
f 57/27/1 58/28/1 59/21/1 60/20/1
f 61/28/1 62/29/1 63/22/1 64/21/1
f 65/29/1 66/30/1 67/23/1 68/22/1
f 69/30/1 70/31/1 71/24/1 72/23/1
f 73/31/1 74/32/1 75/25/1 76/24/1

