# Tiled2Unity generated file. Do not modify by hand.
# Wavefront file for 'Biome_1_Dungeon_Map_B1_mesh_0003.obj'

# Vertices (Count = 48)
v -304 -256 -0.7272727
v -320 -256 -0.7272727
v -320 -240 -0.7272727
v -304 -240 -0.7272727
v -320 -272 -0.7727273
v -336 -272 -0.7727273
v -336 -256 -0.7727273
v -320 -256 -0.7727273
v -336 -272 -0.7727273
v -352 -272 -0.7727273
v -352 -256 -0.7727273
v -336 -256 -0.7727273
v -304 -288 -0.8181818
v -320 -288 -0.8181818
v -320 -272 -0.8181818
v -304 -272 -0.8181818
v -320 -288 -0.8181818
v -336 -288 -0.8181818
v -336 -272 -0.8181818
v -320 -272 -0.8181818
v -288 -304 -0.8636364
v -304 -304 -0.8636364
v -304 -288 -0.8636364
v -288 -288 -0.8636364
v -304 -304 -0.8636364
v -320 -304 -0.8636364
v -320 -288 -0.8636364
v -304 -288 -0.8636364
v -320 -304 -0.8636364
v -336 -304 -0.8636364
v -336 -288 -0.8636364
v -320 -288 -0.8636364
v -336 -304 -0.8636364
v -352 -304 -0.8636364
v -352 -288 -0.8636364
v -336 -288 -0.8636364
v -272 -320 -0.9090909
v -288 -320 -0.9090909
v -288 -304 -0.9090909
v -272 -304 -0.9090909
v -304 -320 -0.9090909
v -320 -320 -0.9090909
v -320 -304 -0.9090909
v -304 -304 -0.9090909
v -320 -320 -0.9090909
v -336 -320 -0.9090909
v -336 -304 -0.9090909
v -320 -304 -0.9090909

# Texture cooridinates (Count = 25)
vt 0.09375 0.0625
vt 0.125 0.0625
vt 0.125 0.09375
vt 0.09375 0.09375
vt 0.03125 0.09375
vt 0.0625 0.09375
vt 0.0625 0.125
vt 0.03125 0.125
vt 0.09375 0.125
vt 0.125 0.125
vt 0.125 0.15625
vt 0.09375 0.15625
vt 0.15625 0.09375
vt 0.15625 0.125
vt 0.3125 0.125
vt 0.34375 0.125
vt 0.34375 0.15625
vt 0.3125 0.15625
vt 0.0625 0.15625
vt 0.03125 0.15625
vt 0.03125 0.03125
vt 0.0625 0.03125
vt 0.0625 0.0625
vt 0.03125 0.0625
vt 0.15625 0.0625

# Normal
vn 0 0 -1

# Mesh description
g Biome_1_Dungeon_Map_B1_mesh_0003

# Faces
f 1/1/1 2/2/1 3/3/1 4/4/1
f 5/5/1 6/6/1 7/7/1 8/8/1
f 9/9/1 10/10/1 11/11/1 12/12/1
f 13/3/1 14/13/1 15/14/1 16/10/1
f 17/4/1 18/3/1 19/10/1 20/9/1
f 21/15/1 22/16/1 23/17/1 24/18/1
f 25/8/1 26/7/1 27/19/1 28/20/1
f 29/1/1 30/2/1 31/3/1 32/4/1
f 33/6/1 34/4/1 35/9/1 36/7/1
f 37/21/1 38/22/1 39/23/1 40/24/1
f 41/1/1 42/2/1 43/3/1 44/4/1
f 45/2/1 46/25/1 47/13/1 48/3/1

